<?xml version="1.0" encoding="UTF-8"?>
<svg width="201px" height="201px" viewBox="0 0 201 201" version="1.1" xmlns="http://www.w3.org/2000/svg" xmlns:xlink="http://www.w3.org/1999/xlink">
    <!-- Generator: Sketch 52.6 (67491) - http://www.bohemiancoding.com/sketch -->
    <title>Group 64</title>
    <desc>Created with Sketch.</desc>
    <defs>
        <polygon id="path-1" points="0 0.807 200.17 0.807 200.17 200.999544 0 200.999544"></polygon>
    </defs>
    <g id="Page-1" stroke="none" stroke-width="1" fill="none" fill-rule="evenodd">
        <g id="Group-64" transform="translate(0.000000, -1.000000)">
            <g id="Group-3" transform="translate(0.000000, 0.193000)">
                <mask id="mask-2" fill="white">
                    <use xlink:href="#path-1"></use>
                </mask>
                <g id="Clip-2"></g>
                <path d="M200.0849,102.9175 C200.0849,134.4175 200.0329,165.9175 200.1699,197.4175 C200.1829,200.4005 199.5669,201.0055 196.5849,200.9995 C132.2519,200.8915 67.9179,200.8915 3.5849,200.9995 C0.6029,201.0055 -0.0131,200.4005 -0.0001,197.4175 C0.1369,165.9175 0.0849,134.4175 0.0849,102.9175 C1.1329,102.3465 2.0079,102.9695 2.8979,103.3545 C4.3559,103.9845 5.7799,104.3665 6.9689,102.8995 C7.6629,102.0425 7.7099,101.0215 7.2099,100.0825 C6.3339,98.4355 4.9159,98.4035 3.3369,98.9405 C2.2629,99.3065 1.1599,99.9495 0.0849,98.9175 C0.0849,67.6235 0.1369,36.3295 0.0059,5.0365 C-0.0081,1.8795 0.2829,0.7975 3.9569,0.8065 C68.0419,0.9605 132.1279,0.9605 196.2139,0.8065 C199.8869,0.7975 200.1779,1.8795 200.1639,5.0365 C200.0329,36.3295 200.0849,67.6235 200.0849,98.9175 C198.8679,99.5735 197.9189,98.6745 196.8789,98.3505 C195.4849,97.9175 194.2969,98.1505 193.4289,99.3715 C192.8059,100.2475 192.8089,101.2075 193.3939,102.1045 C194.2179,103.3655 195.4349,103.5655 196.8229,103.2935 C197.8969,103.0835 198.9089,102.2605 200.0849,102.9175" id="Fill-1" fill="#FEFEFE" mask="url(#mask-2)"></path>
            </g>
            <path d="M0.0849,99.1105 C1.2159,99.2145 1.8169,98.2865 2.6589,97.8155 C4.8399,96.5925 6.8169,96.9225 8.3499,98.9165 C9.6159,100.5625 9.5049,102.3625 8.2239,103.9225 C6.6209,105.8745 4.6209,106.0575 2.4939,104.7215 C1.6759,104.2085 0.8869,103.6485 0.0849,103.1105 L0.0849,99.1105 Z" id="Fill-4" fill="#2F72D2"></path>
            <path d="M200.0849,103.1105 C199.5369,103.4255 198.9579,103.6995 198.4449,104.0645 C196.2399,105.6355 194.1339,105.6065 192.3649,103.4855 C190.9349,101.7705 190.8189,99.8605 192.4629,98.1695 C194.3819,96.1935 196.4759,96.2505 198.5899,97.9155 C199.0909,98.3105 199.5869,98.7125 200.0849,99.1105 L200.0849,103.1105 Z" id="Fill-6" fill="#3274D1"></path>
            <path d="M83.9218,86.9425 C76.6198,86.7815 70.8908,80.6995 71.0788,73.3095 C71.2668,65.9545 77.3058,60.1425 84.6148,60.2815 C91.8108,60.4185 98.0018,66.7025 97.8828,73.7515 C97.7588,81.1905 91.4938,87.1095 83.9218,86.9425" id="Fill-8" fill="#256DD2"></path>
            <path d="M68.5527,114.4454 C61.1477,114.3794 55.1877,108.3874 55.2567,101.0814 C55.3267,93.6784 61.2897,87.8574 68.7287,87.9294 C76.2167,88.0014 82.0237,93.8404 81.9907,101.2664 C81.9587,108.6094 75.9397,114.5114 68.5527,114.4454" id="Fill-10" fill="#256DD2"></path>
            <path d="M71.1616,128.3029 C71.3486,120.8679 77.7106,114.9889 85.2446,115.2889 C92.3286,115.5709 98.2706,122.0829 97.9596,129.2239 C97.6486,136.3519 91.1826,142.3109 84.0686,142.0249 C76.8116,141.7329 70.9796,135.5319 71.1616,128.3029" id="Fill-12" fill="#256DD2"></path>
            <path d="M115.9062,86.9093 C108.4382,86.8133 102.7502,80.9453 102.8292,73.4183 C102.9072,65.9903 108.8922,60.0853 116.2152,60.2123 C123.6182,60.3413 129.3482,66.2703 129.2992,73.7503 C129.2492,81.1653 123.3062,87.0043 115.9062,86.9093" id="Fill-14" fill="#246DD2"></path>
            <path d="M129.3808,128.7316 C129.2978,136.1516 123.2498,142.1236 116.0028,141.9436 C108.5478,141.7576 102.8678,135.8856 102.9018,128.3956 C102.9358,120.9426 108.8378,115.1766 116.3238,115.2856 C123.8548,115.3946 129.4648,121.1726 129.3808,128.7316" id="Fill-16" fill="#256DD2"></path>
            <path d="M132.1797,114.2814 C124.7477,114.3334 118.6277,108.5454 118.4647,101.3094 C118.3017,94.0554 124.2557,87.9474 131.6527,87.7834 C139.1747,87.6164 145.0537,93.2594 145.1907,100.7804 C145.3277,108.2734 139.5887,114.2284 132.1797,114.2814" id="Fill-18" fill="#246DD2"></path>
            <path d="M61.0073,74.3702 C60.8843,78.5512 57.3643,81.9392 53.2193,81.8652 C48.9643,81.7892 45.1943,77.8422 45.4333,73.7102 C45.6713,69.6002 49.2653,66.2192 53.3633,66.2492 C57.7803,66.2822 61.1403,69.8502 61.0073,74.3702" id="Fill-20" fill="#276FD3"></path>
            <path d="M147.3134,66.0836 C151.5544,66.1486 154.9484,69.5316 154.9544,73.6996 C154.9594,78.0776 151.3404,81.6926 147.0124,81.6306 C142.8814,81.5726 139.3874,78.0466 139.3804,73.9316 C139.3744,69.4626 142.8594,66.0146 147.3134,66.0836" id="Fill-22" fill="#266FD2"></path>
            <path d="M155.0058,128.2238 C154.9748,132.4458 151.6398,135.9048 147.5068,135.9998 C143.2158,136.0988 139.4618,132.4388 139.4498,128.1468 C139.4398,123.9468 143.3518,120.1988 147.5788,120.3598 C151.6818,120.5148 155.0368,124.0678 155.0058,128.2238" id="Fill-24" fill="#286FD2"></path>
            <path d="M107.7392,155.6896 C107.6092,160.0106 103.8502,163.3976 99.4372,163.1716 C95.1352,162.9516 92.0452,159.6156 92.1472,155.3016 C92.2532,150.8316 95.8242,147.5516 100.3202,147.7966 C104.4532,148.0226 107.8622,151.6496 107.7392,155.6896" id="Fill-26" fill="#276FD2"></path>
            <path d="M107.8984,46.8883 C107.8264,51.2773 104.2144,54.6233 99.7484,54.4383 C95.5474,54.2653 92.2354,50.7483 92.3624,46.5963 C92.4914,42.3643 95.8414,39.0673 100.0494,39.0333 C104.6094,38.9953 107.9724,42.3623 107.8984,46.8883" id="Fill-28" fill="#2770D2"></path>
            <path d="M61.1279,128.6017 C61.0699,132.7617 57.6799,136.1027 53.4809,136.1377 C49.1189,136.1737 45.6289,132.6207 45.6989,128.2127 C45.7649,124.0077 49.1099,120.7457 53.3549,120.7457 C57.9389,120.7447 61.1919,124.0327 61.1279,128.6017" id="Fill-30" fill="#276FD2"></path>
            <path d="M29.9253,107.964 C26.4213,107.903 23.3203,104.725 23.3263,101.2 C23.3333,97.687 26.5103,94.539 30.0283,94.56 C33.4123,94.581 36.6783,97.907 36.6853,101.339 C36.6923,104.723 33.3243,108.023 29.9253,107.964" id="Fill-32" fill="#2970D1"></path>
            <path d="M65.2226,168.8663 C61.6846,168.8743 58.5866,165.8003 58.5466,162.2433 C58.5106,158.9683 61.9706,155.5003 65.2496,155.5263 C68.7256,155.5543 71.8526,158.7503 71.8516,162.2743 C71.8496,165.8693 68.8446,168.8583 65.2226,168.8663" id="Fill-34" fill="#2A70D2"></path>
            <path d="M71.436,39.9801 C71.492,43.7191 68.71,46.7071 65.085,46.8011 C61.716,46.8891 58.387,43.6641 58.297,40.2231 C58.206,36.7711 61.316,33.5511 64.848,33.4441 C68.466,33.3331 71.38,36.2241 71.436,39.9801" id="Fill-36" fill="#2970D2"></path>
            <path d="M134.7695,33.3204 C139.0275,33.4524 142.0935,36.6344 141.9505,40.1524 C141.8045,43.6874 138.4295,46.8664 135.0085,46.6884 C131.5815,46.5104 128.5635,43.0674 128.8525,39.5024 C129.1725,35.5424 131.5695,33.6574 134.7695,33.3204" id="Fill-38" fill="#2970D2"></path>
            <path d="M135.6113,168.8068 C132.0633,168.8188 129.0873,165.7948 129.0583,162.1498 C129.0323,158.6218 132.0983,155.4378 135.5463,155.4128 C139.0093,155.3898 142.1223,158.5508 142.1173,162.0858 C142.1113,165.7548 139.1693,168.7938 135.6113,168.8068" id="Fill-40" fill="#2A70D2"></path>
            <path d="M177.1513,101.1896 C177.0463,104.8896 173.9453,107.8186 170.2403,107.4606 C166.3793,107.0856 164.1873,104.8046 164.0423,100.9166 C163.9083,97.3386 167.2003,94.1946 170.7423,94.2496 C174.2733,94.3046 177.2553,97.5326 177.1513,101.1896" id="Fill-42" fill="#286FD2"></path>
            <path d="M24.7661,63.2081 C21.6701,62.8661 19.7981,61.0231 19.8981,57.7291 C19.9981,54.4721 22.0151,52.4091 25.2231,52.4201 C28.3921,52.4321 30.6621,54.5011 30.6251,57.6821 C30.5861,60.9671 28.6581,63.1931 24.7661,63.2081" id="Fill-44" fill="#2D72D3"></path>
            <path d="M175.6133,52.129 C178.8083,52.446 180.7463,54.567 180.6483,57.62 C180.5433,60.925 178.3363,63.182 174.7853,62.921 C171.5023,62.681 169.7693,60.463 169.9393,57.209 C170.1123,53.895 172.1593,52.248 175.6133,52.129" id="Fill-46" fill="#2C72D1"></path>
            <path d="M175.4189,138.9708 C178.8039,139.3988 180.8649,141.1908 180.7699,144.5118 C180.6739,147.7978 178.5149,149.8688 175.2859,149.8038 C172.0609,149.7388 170.0229,147.6748 170.1119,144.2848 C170.1989,140.9278 172.1759,139.1938 175.4189,138.9708" id="Fill-48" fill="#2D72D2"></path>
            <path d="M19.9956,144.4435 C20.4746,141.1915 22.2786,139.2075 25.5396,139.3115 C28.7826,139.4155 30.8576,141.5925 30.8086,144.7075 C30.7566,148.0595 28.6186,150.2285 25.0366,150.0105 C21.7086,149.8075 20.2226,147.6205 19.9956,144.4435" id="Fill-50" fill="#2A71D1"></path>
            <path d="M99.8418,193.3312 C96.4908,193.0042 94.4718,191.1522 94.5148,187.8612 C94.5578,184.5532 96.7698,182.4622 99.9708,182.5452 C103.0978,182.6262 105.3028,184.5882 105.2258,188.0252 C105.1508,191.4012 103.1448,193.1022 99.8418,193.3312" id="Fill-52" fill="#2C72D1"></path>
            <path d="M99.7968,8.8727 C103.3768,9.1737 105.4868,10.9457 105.5068,14.2297 C105.5258,17.5167 103.2998,19.6317 100.1538,19.6707 C96.9858,19.7097 94.8558,17.6337 94.7798,14.3057 C94.7028,10.8857 96.8628,9.2967 99.7968,8.8727" id="Fill-54" fill="#2A71D1"></path>
            <path d="M56.8139,18.6642 C56.3219,21.0962 54.7529,22.6682 52.4179,22.6072 C49.8559,22.5402 48.0869,20.9342 48.2629,18.1162 C48.4189,15.5992 50.0499,14.2042 52.4939,14.2112 C55.2869,14.2192 56.4969,16.0792 56.8139,18.6642" id="Fill-56" fill="#3577D3"></path>
            <path d="M147.5244,22.34 C145.0754,21.926 143.3634,20.569 143.5164,18.054 C143.6804,15.365 145.4394,13.797 148.2464,14.082 C150.7924,14.34 152.1004,16.006 151.9514,18.526 C151.7934,21.196 149.9034,22.111 147.5244,22.34" id="Fill-58" fill="#3375D2"></path>
            <path d="M148.2822,188.0636 C145.8352,187.8356 144.1482,186.6176 143.9732,184.0926 C143.7762,181.2296 145.6012,179.6726 148.2162,179.6456 C150.6432,179.6196 152.3412,181.2336 152.3072,183.7556 C152.2752,186.1726 150.8222,187.7186 148.2822,188.0636" id="Fill-60" fill="#2D72D1"></path>
            <path d="M52.8745,179.9044 C55.3645,180.1554 56.9515,181.3934 56.9255,183.9954 C56.8965,186.8014 55.2735,188.3064 52.5025,188.1454 C49.9645,187.9974 48.6455,186.4334 48.7365,183.8504 C48.8305,181.2164 50.3705,180.0444 52.8745,179.9044" id="Fill-62" fill="#3073D3"></path>
        </g>
    </g>
</svg>