<?xml version="1.0" encoding="UTF-8"?>
<svg width="92px" height="92px" viewBox="0 0 92 92" version="1.1" xmlns="http://www.w3.org/2000/svg" xmlns:xlink="http://www.w3.org/1999/xlink">
    <!-- Generator: Sketch 52.6 (67491) - http://www.bohemiancoding.com/sketch -->
    <title>Group 86</title>
    <desc>Created with Sketch.</desc>
    <g id="Page-1" stroke="none" stroke-width="1" fill="none" fill-rule="evenodd">
        <g id="Group-86">
            <path d="M60.024,91.2249 C59.077,90.4629 57.91,90.1089 56.865,89.5289 C55.777,88.9259 55.388,88.1619 55.901,87.0529 C57.629,83.3169 59.418,79.6089 61.22,75.9079 C61.699,74.9229 62.554,74.6829 63.55,75.1229 C64.684,75.6219 65.809,76.1439 66.921,76.6889 C68.73,77.5749 68.961,78.2709 68.071,80.1269 C66.759,82.8669 65.439,85.6029 64.112,88.3359 C63.642,89.3059 63.312,90.3449 62.664,91.2249 L60.024,91.2249 Z" id="Fill-4" fill="#242424"></path>
            <path d="M16.3731,30.0535 C16.5741,30.1235 16.9181,30.2205 17.2431,30.3625 C18.0111,30.6995 18.7661,31.0625 19.5301,31.4065 C22.4241,32.7075 22.5521,33.1095 21.1651,35.9965 C18.5721,41.3935 16.0101,46.8045 13.4191,52.2025 C12.4441,54.2345 11.7641,54.4545 9.7521,53.4725 C8.8911,53.0525 8.0311,52.6295 7.1741,52.2015 C5.4811,51.3565 5.2491,50.6935 6.0661,48.9465 C6.8111,47.3555 7.5751,45.7745 8.3341,44.1905 C10.3681,39.9425 12.4071,35.6965 14.4351,31.4455 C14.8031,30.6745 15.3001,30.1065 16.3731,30.0535" id="Fill-34" fill="#242424"></path>
            <path d="M75.5968,61.9368 C75.1168,61.9648 74.7028,61.8218 74.3048,61.6258 C73.1918,61.0808 72.0698,60.5528 70.9708,59.9808 C69.7298,59.3348 69.4778,58.6098 70.0428,57.3148 C70.5218,56.2158 71.0368,55.1328 71.5548,54.0518 C73.8728,49.2238 76.1898,44.3948 78.5238,39.5738 C79.3608,37.8448 80.0138,37.6498 81.7618,38.4908 C82.6618,38.9238 83.5788,39.3218 84.4788,39.7548 C86.2728,40.6168 86.5418,41.3618 85.6928,43.1938 C84.9358,44.8258 84.1498,46.4428 83.3728,48.0658 C81.3718,52.2478 79.3628,56.4258 77.3698,60.6128 C76.9988,61.3928 76.5138,61.9628 75.5968,61.9368" id="Fill-36" fill="#242424"></path>
            <path d="M51.3575,32.9876 C51.6715,33.1046 52.1315,33.2386 52.5595,33.4426 C58.4005,36.2226 64.2405,39.0066 70.0735,41.8036 C71.5965,42.5346 71.8525,43.2866 71.1495,44.7796 C70.6055,45.9356 70.0645,47.0936 69.4865,48.2336 C68.8995,49.3906 68.0665,49.7236 66.9235,49.1826 C60.8245,46.2936 54.7335,43.3886 48.6515,40.4646 C47.5535,39.9356 47.2675,39.0976 47.7595,37.9736 C48.3355,36.6566 48.9875,35.3746 49.6015,34.0736 C49.9225,33.3926 50.4645,33.0526 51.3575,32.9876" id="Fill-38" fill="#3A3A3A"></path>
            <path d="M49.2164,24.0984 C49.2424,24.6224 49.0474,25.0584 48.8384,25.4944 C46.0794,31.2584 43.3274,37.0274 40.5604,42.7874 C39.7084,44.5614 39.0024,44.7914 37.2354,43.9364 C36.2284,43.4494 35.2184,42.9664 34.2264,42.4504 C32.8124,41.7154 32.5614,40.9064 33.2784,39.3894 C34.8324,36.1034 36.3954,32.8214 37.9644,29.5424 C39.2054,26.9484 40.4484,24.3544 41.7174,21.7734 C42.3884,20.4084 43.1894,20.1224 44.5364,20.7324 C45.7374,21.2764 46.9264,21.8444 48.1084,22.4284 C48.7964,22.7674 49.2574,23.2914 49.2164,24.0984" id="Fill-40" fill="#242424"></path>
            <path d="M33.5782,69.8787 C34.0932,69.8907 34.5192,70.1267 34.9492,70.3307 C40.7872,73.1127 46.6252,75.8967 52.4582,78.6897 C53.9662,79.4117 54.2412,80.1867 53.5482,81.6677 C53.0072,82.8247 52.4642,83.9817 51.8892,85.1217 C51.3072,86.2747 50.4742,86.6127 49.3212,86.0667 C43.2232,83.1807 37.1342,80.2747 31.0552,77.3487 C29.9492,76.8157 29.6642,75.9767 30.1552,74.8577 C30.7312,73.5417 31.3782,72.2557 31.9982,70.9597 C32.3182,70.2897 32.8462,69.9197 33.5782,69.8787" id="Fill-42" fill="#3A3A3A"></path>
            <path d="M47.7374,71.5017 C46.3124,71.0117 44.5534,70.2337 43.0024,69.1137 C42.2234,68.5527 42.4584,67.6147 42.8464,66.7997 C44.3454,63.6607 45.8264,60.5147 47.3274,57.3767 C48.6554,54.6007 49.9914,51.8267 51.3444,49.0617 C51.9914,47.7397 52.8144,47.4307 54.1854,48.0077 C55.2904,48.4727 56.3784,48.9807 57.4504,49.5177 C58.9844,50.2857 59.2684,51.0937 58.5424,52.6267 C56.8144,56.2757 55.0684,59.9157 53.3254,63.5577 C52.2554,65.7937 51.1764,68.0257 50.1054,70.2607 C49.7124,71.0797 49.1604,71.6527 47.7374,71.5017" id="Fill-44" fill="#242424"></path>
            <path d="M24.0494,42.719 C24.5074,42.694 24.9034,42.887 25.3014,43.077 C31.1374,45.865 36.9764,48.648 42.8104,51.441 C44.3164,52.162 44.5884,52.915 43.9004,54.419 C43.3844,55.545 42.8534,56.663 42.3014,57.77 C41.6574,59.061 40.8494,59.386 39.5744,58.781 C33.5864,55.94 27.6064,53.082 21.6344,50.208 C20.2634,49.548 20.0204,48.765 20.6604,47.382 C21.2144,46.186 21.7894,45.001 22.3574,43.812 C22.6964,43.102 23.2224,42.677 24.0494,42.719" id="Fill-46" fill="#3A3A3A"></path>
            <path d="M41.6207,5.7991 C42.0397,5.7781 42.4017,5.9531 42.7627,6.1251 C48.6387,8.9291 54.5157,11.7301 60.3867,14.5421 C61.9707,15.3001 62.2067,15.9861 61.4717,17.6001 C61.0067,18.6171 60.5177,19.6231 60.0337,20.6311 C59.2667,22.2271 58.4727,22.5161 56.8647,21.7501 C51.9237,19.3981 46.9887,17.0361 42.0507,14.6771 C41.0777,14.2131 40.0937,13.7691 39.1357,13.2751 C38.0167,12.6971 37.7067,11.9351 38.1977,10.8071 C38.7877,9.4531 39.4557,8.1331 40.1027,6.8041 C40.4077,6.1781 40.9257,5.8471 41.6207,5.7991" id="Fill-48" fill="#3A3A3A"></path>
            <path d="M70.2681,73.2185 C69.9041,73.2545 69.5411,73.0855 69.1801,72.9125 C65.6851,71.2465 62.1861,69.5875 58.6981,67.9075 C57.0491,67.1145 56.8161,66.4085 57.5941,64.7605 C58.1231,63.6425 58.6361,62.5155 59.1991,61.4145 C59.7771,60.2845 60.6381,59.9595 61.7851,60.4985 C65.4691,62.2305 69.1431,63.9855 72.8051,65.7645 C73.9521,66.3225 74.2261,67.1765 73.7031,68.3445 C73.1481,69.5825 72.5531,70.8025 71.9641,72.0265 C71.6341,72.7125 71.1561,73.2145 70.2681,73.2185" id="Fill-56" fill="#3A3A3A"></path>
            <path d="M91.4615,30.8606 C91.4565,30.8776 91.3985,31.1946 91.2675,31.4786 C90.6975,32.7116 90.1275,33.9456 89.5175,35.1586 C88.9435,36.2986 88.1045,36.6296 86.9335,36.0816 C83.2425,34.3536 79.5665,32.5926 75.9005,30.8126 C74.8005,30.2776 74.5025,29.4456 74.9905,28.3246 C75.5655,27.0076 76.1935,25.7116 76.8485,24.4306 C77.3685,23.4146 78.2285,23.0786 79.2575,23.5606 C83.0215,25.3226 86.7635,27.1276 90.5115,28.9236 C91.1865,29.2476 91.5475,29.7836 91.4615,30.8606" id="Fill-58" fill="#3A3A3A"></path>
            <path d="M30.9503,31.8084 C30.5383,31.8074 30.1733,31.6534 29.8093,31.4794 C26.3153,29.8084 22.8143,28.1504 19.3253,26.4674 C17.7733,25.7194 17.5333,25.0424 18.2393,23.5044 C18.7723,22.3434 19.3193,21.1874 19.9043,20.0514 C20.5093,18.8764 21.3063,18.5534 22.4683,19.0974 C26.1573,20.8244 29.8313,22.5824 33.4953,24.3614 C34.5833,24.8904 34.8843,25.7424 34.3983,26.8514 C33.8053,28.2044 33.1453,29.5274 32.4953,30.8534 C32.1873,31.4824 31.6513,31.7914 30.9503,31.8084" id="Fill-60" fill="#3A3A3A"></path>
            <path d="M13.3409,68.6848 C12.9239,68.7058 12.5619,68.5388 12.1999,68.3658 C8.7029,66.6958 5.1989,65.0388 1.7109,63.3538 C0.1849,62.6168 -0.0541,61.9088 0.6499,60.3758 C1.1829,59.2148 1.7259,58.0568 2.3059,56.9178 C2.9059,55.7438 3.7039,55.4358 4.8689,55.9838 C8.5199,57.7018 12.1599,59.4418 15.7909,61.2018 C17.0279,61.8008 17.3159,62.6228 16.7589,63.8558 C16.1839,65.1298 15.5599,66.3818 14.9489,67.6398 C14.6249,68.3058 14.1059,68.6898 13.3409,68.6848" id="Fill-62" fill="#3A3A3A"></path>
            <path d="M31.6881,61.1844 C31.6221,61.3804 31.5401,61.7324 31.3891,62.0524 C29.7491,65.5144 28.1111,68.9784 26.4431,72.4274 C25.6921,73.9804 24.9161,74.2614 23.3531,73.5634 C22.1871,73.0434 21.0401,72.4754 19.9121,71.8774 C18.7791,71.2784 18.5001,70.4464 19.0501,69.2784 C20.6981,65.7754 22.3601,62.2794 24.0481,58.7954 C24.7691,57.3094 25.5701,57.0374 27.0561,57.6994 C28.1851,58.2044 29.3061,58.7294 30.4101,59.2864 C31.1101,59.6404 31.6671,60.1464 31.6881,61.1844" id="Fill-64" fill="#242424"></path>
            <path d="M36.1793,4.3045 C36.0973,4.5305 36.0143,4.8405 35.8783,5.1245 C34.1783,8.6995 32.4853,12.2775 30.7573,15.8385 C30.0803,17.2325 29.3373,17.4775 27.9343,16.8365 C26.8803,16.3545 25.8513,15.8155 24.8033,15.3205 C23.2233,14.5755 22.8823,13.7415 23.6283,12.1555 C24.8533,9.5505 26.1233,6.9665 27.3683,4.3705 C27.7833,3.5055 28.1373,2.6085 28.5953,1.7675 C29.2613,0.5425 30.1423,0.2725 31.4013,0.8465 C32.5663,1.3765 33.7153,1.9385 34.8793,2.4695 C35.6403,2.8165 36.0533,3.3985 36.1793,4.3045" id="Fill-66" fill="#242424"></path>
            <path d="M72.9752,21.7356 C72.9912,22.2356 72.8262,22.6406 72.6352,23.0406 C71.0192,26.4306 69.4172,29.8276 67.7842,33.2096 C66.9772,34.8796 66.2952,35.1166 64.6322,34.3456 C63.5082,33.8256 62.3982,33.2746 61.2962,32.7086 C60.1022,32.0946 59.8002,31.3806 60.3702,30.1526 C62.0352,26.5656 63.7362,22.9946 65.4672,19.4386 C66.0822,18.1736 66.8372,17.8876 68.1262,18.4086 C69.4212,18.9326 70.6742,19.5606 71.9302,20.1746 C72.5792,20.4916 73.0092,20.9976 72.9752,21.7356" id="Fill-68" fill="#242424"></path>
        </g>
    </g>
</svg>