<?xml version="1.0" encoding="UTF-8"?>
<svg width="155px" height="155px" viewBox="0 0 155 155" version="1.1" xmlns="http://www.w3.org/2000/svg" xmlns:xlink="http://www.w3.org/1999/xlink">
    <!-- Generator: Sketch 52.6 (67491) - http://www.bohemiancoding.com/sketch -->
    <title>Artboard</title>
    <desc>Created with Sketch.</desc>
    <defs>
        <polygon id="path-1" points="0 0.352194857 259.498 0.352194857 259.498 249.999205 0 249.999205"></polygon>
    </defs>
    <g id="Artboard" stroke="none" stroke-width="1" fill="none" fill-rule="evenodd">
        <g id="Group-10" transform="translate(-61.000000, -41.000000)">
            <g id="Group-3" transform="translate(0.000000, 0.648000)">
                <mask id="mask-2" fill="white">
                    <use xlink:href="#path-1"></use>
                </mask>
                <g id="Clip-2"></g>
            </g>
            <path d="M148.8793,90.321 L119.6683,90.321 C120.7683,88.707 121.7663,87.235 122.7733,85.769 C125.6413,81.589 128.5253,77.419 131.3733,73.225 C131.8143,72.577 132.2663,72.28 133.1013,72.282 C145.3383,72.315 157.5753,72.315 169.8133,72.284 C170.6793,72.282 170.9423,72.446 170.9333,73.372 C170.8813,78.731 170.8973,84.09 170.9223,89.448 C170.9253,90.088 170.7333,90.588 170.3833,91.095 C166.7333,96.384 163.0943,101.682 159.4523,106.978 C159.2523,107.27 159.0653,107.572 158.8013,107.976 C161.3083,108.572 163.6973,109.239 166.0033,110.197 C180.5353,116.234 189.5643,131.29 187.9973,146.93 C186.3943,162.949 175.0843,175.612 159.3463,179.008 C139.6483,183.259 119.8033,169.838 116.3863,149.969 C116.0743,148.154 115.9283,146.33 115.8203,144.497 C115.7803,143.821 115.9013,143.519 116.7043,143.525 C122.1023,143.564 127.5013,143.576 132.9003,143.518 C133.9013,143.507 133.8633,144.04 133.9093,144.688 C134.4563,152.384 139.4003,158.644 146.7253,160.917 C157.4113,164.234 168.6543,156.935 169.9893,145.814 C171.3063,134.84 162.7693,125.252 151.7703,125.395 C148.9423,125.431 146.2233,126.056 143.7333,127.438 C143.0333,127.826 142.7463,127.674 142.3783,127.026 C139.7173,122.346 137.0353,117.678 134.3143,113.034 C133.9453,112.405 134.0153,112.019 134.4033,111.458 C139.1233,104.627 143.8163,97.777 148.5153,90.931 C148.6043,90.802 148.6763,90.662 148.8793,90.321" id="Fill-4" fill="#000000"></path>
            <path d="M89.308,77.0959 C92.012,75.6609 94.682,74.4609 97.529,73.6709 C100.275,72.9079 103.061,72.3819 105.901,72.3549 C112.455,72.2919 119.011,72.3349 125.578,72.3349 C125.654,72.7619 125.323,72.9929 125.134,73.2689 C121.412,78.7019 117.669,84.1209 113.964,89.5649 C113.555,90.1669 113.132,90.3659 112.413,90.3649 C109.502,90.3579 106.583,90.1929 103.691,90.7659 C95.524,92.3869 89.319,99.8709 89.311,108.1899 C89.299,119.5859 89.294,130.9819 89.333,142.3779 C89.336,143.3669 89.118,143.6219 88.111,143.6109 C82.873,143.5529 77.635,143.5689 72.397,143.5999 C71.59,143.6049 71.241,143.5299 71.242,142.5449 C71.277,119.4729 71.274,96.4009 71.249,73.3289 C71.248,72.4889 71.453,72.2779 72.292,72.2839 C77.65,72.3249 83.008,72.3249 88.366,72.2839 C89.187,72.2769 89.359,72.5379 89.324,73.2869 C89.266,74.5129 89.308,75.7419 89.308,77.0959" id="Fill-6" fill="#000000"></path>
            <path d="M203.2104,125.5846 C208.1734,125.5936 212.1834,129.6076 212.1874,134.5726 C212.1914,139.5676 208.1224,143.6026 203.1024,143.5846 C198.1194,143.5656 194.1674,139.5906 194.1504,134.5836 C194.1344,129.5456 198.1324,125.5756 203.2104,125.5846" id="Fill-8" fill="#EB1C24"></path>
        </g>
    </g>
</svg>