<?xml version="1.0" encoding="UTF-8"?>
<svg width="363px" height="363px" viewBox="0 0 363 363" version="1.1" xmlns="http://www.w3.org/2000/svg" xmlns:xlink="http://www.w3.org/1999/xlink">
    <!-- Generator: Sketch 52.6 (67491) - http://www.bohemiancoding.com/sketch -->
    <title>Artboard</title>
    <desc>Created with Sketch.</desc>
    <g id="Artboard" stroke="none" stroke-width="1" fill="none" fill-rule="evenodd">
        <g id="Group-20" transform="translate(42.000000, 31.000000)">
            <path d="M88.8691,163.1222 C87.5341,161.8722 86.1641,160.6582 84.8701,159.3672 C79.5941,154.1032 78.4191,149.3912 81.5761,142.6542 C83.0291,139.5522 82.0281,138.8292 79.4221,137.8722 C64.9631,132.5682 50.2891,131.3792 35.2711,135.1042 C33.6561,135.5042 31.6291,137.2422 30.3701,135.2142 C29.3861,133.6312 31.2121,132.1592 32.2261,130.9132 C46.7061,113.1122 63.3791,98.4802 86.7361,93.6992 C92.6231,92.4942 98.6081,91.6852 104.5911,92.7422 C107.8801,93.3242 109.6191,92.3772 111.2901,89.4132 C117.9101,77.6712 125.2291,66.3142 131.5991,54.4452 C143.8721,31.5762 163.2051,17.5652 187.0661,9.0932 C202.5041,3.6102 218.3691,0.0802 234.8811,0.0362 C239.1821,0.0242 242.5231,1.4122 243.8491,5.6632 C254.6571,40.3162 257.0011,74.7172 238.7731,107.7802 C232.2551,119.6032 222.3481,129.1322 213.8671,139.6112 C209.8851,144.5312 205.7581,149.3342 201.6421,154.1432 C200.3551,155.6462 199.7721,156.8642 200.8421,158.9822 C211.4711,180.0192 209.5231,201.1402 200.8511,222.1942 C197.9311,229.2842 194.2601,236.0082 190.1091,242.4582 C189.4081,243.5492 188.6611,245.0822 187.1851,244.7952 C185.4461,244.4562 186.0181,242.6482 185.9081,241.4302 C184.4621,225.4752 178.2631,211.5792 167.7991,199.5342 C166.5801,198.1312 165.7541,196.1932 163.1731,198.5182 C155.3101,205.6052 151.4841,205.8002 142.2531,200.4652 C141.3961,199.9702 140.4791,199.5792 139.5901,199.1392 C136.6121,198.7732 134.9001,196.1932 132.3751,195.0312 C120.4231,186.7662 108.5311,178.4142 96.7801,169.8622 C94.4011,167.3132 90.5051,166.5402 88.8691,163.1222" id="Fill-4" fill="#5B6A72"></path>
            <path d="M88.8691,163.1222 C91.7471,164.9442 94.7641,166.5762 97.1351,169.0992 C97.8381,171.3482 96.2761,172.8712 95.3481,174.5802 C90.7871,182.9842 86.9251,191.5622 87.3691,201.4802 C87.8441,212.0892 94.9461,217.3872 105.2631,214.7042 C111.9021,212.9782 117.2811,209.1782 122.2441,204.6342 C125.9131,201.2752 128.9041,197.2002 133.1031,194.4072 C135.4931,195.6722 137.7791,197.0782 139.5891,199.1392 C130.2401,215.9542 117.2681,228.9422 98.9081,235.4012 C81.7741,241.4292 69.2531,232.5182 68.8731,214.3822 C68.4581,194.6272 76.6911,178.0602 88.8691,163.1222" id="Fill-6" fill="#EC8117"></path>
            <path d="M46.7534,254.5431 C45.9654,255.7251 45.3444,256.7091 44.6724,257.6561 C31.6874,275.9551 18.6964,294.2511 5.7004,312.5421 C5.1234,313.3551 4.4974,314.1331 3.8804,314.9171 C3.0754,315.9421 2.1674,316.4941 0.9404,315.5221 C-0.2906,314.5481 0.1024,313.5471 0.8414,312.4991 C2.7584,309.7841 4.6414,307.0451 6.5644,304.3351 C17.9154,288.3411 29.2714,272.3511 40.6324,256.3631 C41.4024,255.2791 42.2484,254.2501 43.0204,253.1661 C43.6394,252.2971 44.3824,252.2711 45.1284,252.8671 C45.7314,253.3501 46.2154,253.9791 46.7534,254.5431" id="Fill-8" fill="#989898"></path>
            <path d="M52.0795,272.9201 C51.7265,273.4641 51.3025,274.1711 50.8265,274.8421 C43.6245,284.9951 36.4515,295.1681 29.1645,305.2601 C28.2485,306.5291 27.4415,309.2351 25.0905,307.5141 C22.7605,305.8081 25.0735,304.2471 25.9865,302.9411 C33.0265,292.8771 40.1365,282.8601 47.2995,272.8831 C48.0425,271.8481 48.4605,269.7941 50.6035,270.8561 C51.3745,271.2381 51.9785,271.7731 52.0795,272.9201" id="Fill-10" fill="#999999"></path>
            <path d="M244.019,50.8058 C244.078,78.5128 237.371,99.7508 221.422,118.3718 C200.738,142.5238 180.381,166.9618 159.518,190.9648 C153.98,197.3368 152.132,197.7838 145.28,193.0028 C127.806,180.8118 110.425,168.4858 93.105,156.0768 C86.923,151.6488 86.56,149.4098 90.311,142.6548 C106.952,112.6948 123.832,82.8728 141.425,53.4548 C152.819,34.4018 170.277,23.4808 190.482,16.2468 C203.526,11.5768 217.002,8.7608 230.9,7.9458 C235.146,7.6968 237.068,9.0718 238.221,13.1858 C242.019,26.7398 243.769,40.5348 244.019,50.8058" id="Fill-12" fill="#DBF1F8"></path>
            <path d="M133.103,194.4074 C125.095,205.0924 115.847,214.1104 102.131,216.8834 C94.266,218.4714 86.699,211.7244 86.074,203.0344 C85.27,191.8774 89.519,182.2644 94.83,172.9284 C95.566,171.6344 96.365,170.3744 97.135,169.0994 C109.43,177.1004 121.289,185.7214 133.103,194.4074" id="Fill-14" fill="#EDBA18"></path>
            <path d="M216.2055,75.6071 C216.1835,93.3301 201.5495,108.0271 184.1835,107.7701 C166.3925,107.5051 152.1105,93.0761 152.1895,75.4451 C152.2685,57.7311 166.6865,43.6291 184.5895,43.7561 C202.2785,43.8811 216.2275,57.9341 216.2055,75.6071" id="Fill-16" fill="#5B6A72"></path>
            <path d="M208.2358,75.7272 C208.2368,88.8002 197.6278,99.5782 184.5408,99.7982 C171.4848,100.0182 160.2068,88.9282 160.1448,75.8102 C160.0828,62.4872 170.8148,51.7312 184.2278,51.6752 C197.6758,51.6182 208.2348,62.1972 208.2358,75.7272" id="Fill-18" fill="#FDFDFD"></path>
        </g>
    </g>
</svg>