<?xml version="1.0" encoding="UTF-8"?>
<svg width="1473px" height="246px" viewBox="0 0 1473 246" version="1.1" xmlns="http://www.w3.org/2000/svg" xmlns:xlink="http://www.w3.org/1999/xlink">
    <!-- Generator: Sketch 52.6 (67491) - http://www.bohemiancoding.com/sketch -->
    <title>Group 65</title>
    <desc>Created with Sketch.</desc>
    <defs>
        <polygon id="path-1" points="0 0.626 245.3747 0.626 245.3747 246 0 246"></polygon>
    </defs>
    <g id="Page-1" stroke="none" stroke-width="1" fill="none" fill-rule="evenodd">
        <g id="Artboard" transform="translate(-223.000000, -331.000000)">
            <g id="Group-65" transform="translate(223.000000, 330.000000)">
                <path d="M1159.0433,220.5863 L1159.2533,220.5863 L1159.0433,220.5863 Z" id="Fill-1" fill="#BE272D"></path>
                <path d="M1290.5576,99.593 L1290.7676,99.593 L1290.5576,99.593 Z" id="Fill-2" fill="#BE272D"></path>
                <path d="M1290.7673,99.593 L1290.5573,99.382 L1290.7673,99.593 Z" id="Fill-3" fill="#BE272D"></path>
                <path d="M1172.1942,228.4766 L1172.4052,228.4766 L1172.1942,228.4766 Z" id="Fill-4" fill="#BE272D"></path>
                <g id="Group-64" transform="translate(0.000000, 0.374000)">
                    <path d="M1456.6798,54.7446 C1458.9618,54.7446 1460.2548,53.9726 1460.2548,51.9906 C1460.2548,50.0926 1458.9618,49.3196 1456.6358,49.3196 L1453.5778,49.3196 L1453.5778,54.7446 L1456.6798,54.7446 Z M1450.1748,46.3026 L1456.8508,46.3026 C1461.1168,46.3026 1463.6168,48.1576 1463.6168,51.8166 C1463.6168,54.6606 1462.1498,56.1696 1459.9518,56.8996 L1463.8738,64.3536 L1460.2128,64.3536 L1456.5938,57.3316 L1453.5778,57.3316 L1453.5778,64.3536 L1450.1748,64.3536 L1450.1748,46.3026 Z M1470.2508,55.6966 C1470.2508,47.8106 1464.2608,41.6076 1456.4648,41.6076 C1448.6238,41.6076 1442.7208,47.7266 1442.7208,55.6066 C1442.7208,63.4926 1448.7078,69.6956 1456.5508,69.6956 C1464.3468,69.6956 1470.2508,63.5766 1470.2508,55.6966 Z M1440.0078,55.6966 C1440.0078,46.4336 1447.2438,39.1056 1456.5508,39.1056 C1465.8138,39.1056 1472.9628,46.3446 1472.9628,55.6066 C1472.9628,64.8696 1465.7268,72.1916 1456.4648,72.1916 C1447.1578,72.1916 1440.0078,64.9586 1440.0078,55.6966 Z" id="Fill-5" fill="#ED262B"></path>
                    <polygon id="Fill-7" fill="#FEFEFE" points="987.6242 176.7426 979.8122 174.6976 1009.4192 61.6546 1017.2302 63.6996"></polygon>
                    <path d="M371.4914,98.8158 C371.4914,103.7958 368.7034,106.5858 363.5224,106.5858 L345.3964,106.5858 L345.3964,66.3488 L363.5224,66.3488 C368.9024,66.3488 371.4914,69.1378 371.4914,74.3158 L371.4914,98.8158 Z M371.4914,165.1458 C371.4914,170.5238 368.7034,173.1128 363.5224,173.1128 L345.3964,173.1128 L345.3964,132.8778 L363.5224,132.8778 C368.9024,132.8778 371.4914,135.6658 371.4914,140.8438 L371.4914,165.1458 Z M369.0994,40.0568 L309.9574,40.0058 C308.0954,40.0058 306.9304,42.0228 307.8614,43.6358 L318.1084,61.3828 L318.1084,196.2158 C318.1084,198.2088 319.3044,199.4048 321.2974,199.4048 L369.0994,199.4048 C387.8244,199.4048 397.9834,189.4458 397.9834,170.7208 L397.9834,134.0728 C397.9834,126.7028 392.6034,121.1258 385.4324,119.9288 L385.4324,119.5328 C392.6034,118.3368 397.9834,112.7588 397.9834,105.3888 L397.9834,68.7388 C397.9834,50.0158 387.8244,40.0568 369.0994,40.0568 Z" id="Fill-9" fill="#FEFEFE"></path>
                    <path d="M506.4006,40.0571 L488.0756,40.0571 C485.8856,40.0571 484.0926,41.8501 484.0926,44.0421 L484.0926,165.1461 C484.0926,170.5241 481.3036,173.1131 476.1246,173.1131 L465.7676,173.1131 C460.5876,173.1131 457.8006,170.5241 457.8006,165.1461 L457.8006,44.0421 C457.8006,41.8501 456.0086,40.0571 453.8166,40.0571 L434.6946,40.0571 C432.5026,40.0571 430.7106,41.8501 430.7106,44.0421 L430.7106,170.7211 C430.7106,189.4461 440.6696,199.4051 459.3936,199.4051 L481.7016,199.4051 C500.4256,199.4051 510.3846,189.4461 510.3846,170.7211 L510.3846,44.0421 C510.3846,41.8501 508.5926,40.0571 506.4006,40.0571" id="Fill-11" fill="#FEFEFE"></path>
                    <path d="M594.1057,40.0571 L571.7977,40.0571 C553.2727,40.0571 543.1147,50.0161 543.1147,68.7391 L543.1147,115.7471 C543.1147,119.5331 544.9067,121.9221 548.4927,123.1181 L595.7017,138.6551 L595.7017,165.1461 C595.7017,170.5241 592.9127,173.1131 587.7317,173.1131 L578.1717,173.1131 C573.1917,173.1131 570.2057,170.5241 570.2057,165.1461 L570.2057,149.8071 C570.2057,147.6181 569.2097,146.6211 567.0167,146.6211 L546.3027,146.6211 C544.3097,146.6211 543.1147,147.6181 543.1147,149.8071 L543.1147,170.7211 C543.1147,189.4461 553.2727,199.4051 571.7977,199.4051 L594.1057,199.4051 C612.8307,199.4051 622.7897,189.4461 622.7897,170.7211 L622.7897,124.7101 C622.7897,120.9251 620.9967,118.7361 617.6087,117.3401 L570.2057,101.8041 L570.2057,74.3161 C570.2057,69.1381 573.1917,66.3491 578.1717,66.3491 L587.7317,66.3491 C593.1097,66.3491 595.7017,69.1381 595.7017,74.3161 L595.7017,89.8531 C595.7017,91.8451 596.8937,93.0401 598.8867,93.0401 L619.6007,93.0401 C621.7927,93.0401 622.7897,91.8451 622.7897,89.8531 L622.7897,68.7391 C622.7897,50.0161 612.8307,40.0571 594.1057,40.0571" id="Fill-13" fill="#FEFEFE"></path>
                    <path d="M731.8078,40.0571 L711.2928,40.0571 C709.3008,40.0571 708.1048,41.2531 708.1048,43.2431 L708.1048,106.5851 L682.6098,106.5851 L682.6098,43.2431 C682.6098,41.2531 681.4128,40.0571 679.4238,40.0571 L658.9068,40.0571 C656.5168,40.0571 655.5208,41.2531 655.5208,43.2431 L655.5208,196.2161 C655.5208,198.2081 656.5168,199.4051 658.9068,199.4051 L679.4238,199.4051 C681.4128,199.4051 682.6098,198.2081 682.6098,196.2161 L682.6098,132.8771 L708.1048,132.8771 L708.1048,196.2161 C708.1048,198.2081 709.3008,199.4051 711.2928,199.4051 L731.8078,199.4051 C734.1978,199.4051 735.1938,198.2081 735.1938,196.2161 L735.1938,43.2431 C735.1938,41.2531 734.1978,40.0571 731.8078,40.0571" id="Fill-15" fill="#FEFEFE"></path>
                    <path d="M808.3576,40.0571 L771.7106,45.0381 C769.1186,45.2351 767.9246,46.6311 767.9246,49.2201 L767.9246,68.3411 C767.9246,70.9311 769.5176,72.3271 772.1066,71.9271 L784.4586,70.3341 L784.4586,196.2161 C784.4586,198.2081 785.4546,199.4051 787.6436,199.4051 L808.3576,199.4051 C810.3506,199.4051 811.5456,198.2081 811.5456,196.2161 L811.5456,43.2431 C811.5456,41.2531 810.3506,40.0571 808.3576,40.0571" id="Fill-17" fill="#FEFEFE"></path>
                    <path d="M899.6506,165.1459 C899.6506,170.5239 896.8626,173.1129 891.6836,173.1129 L873.3586,173.1129 L873.3586,66.3489 L891.6836,66.3489 C896.8626,66.3489 899.6506,69.1379 899.6506,74.5159 L899.6506,165.1459 Z M897.2616,40.0569 L849.4566,40.0569 C847.2666,40.0569 846.2706,41.2529 846.2706,43.2429 L846.2706,196.2159 C846.2706,198.4089 847.2666,199.4049 849.4566,199.4049 L897.2616,199.4049 C915.9836,199.4049 925.9426,189.4459 925.9426,170.7209 L925.9426,68.9379 C925.9426,50.2159 915.9836,40.0569 897.2616,40.0569 Z" id="Fill-19" fill="#FEFEFE"></path>
                    <path d="M1012.6545,165.7426 C1012.6545,171.1206 1009.8655,173.7096 1004.6845,173.7096 L993.1335,173.7096 C987.9555,173.7096 985.1665,171.1206 985.1665,165.7426 L985.1665,73.7196 C985.1665,68.5416 987.9555,65.7526 993.1335,65.7526 L1004.6845,65.7526 C1009.8655,65.7526 1012.6545,68.5416 1012.6545,73.7196 L1012.6545,165.7426 Z M1009.6665,40.0566 L987.3555,40.0566 C968.6335,40.0566 958.6755,50.0156 958.6755,68.7386 L958.6755,170.7216 C958.6755,189.4456 968.6335,199.4046 987.3555,199.4046 L1009.6665,199.4046 C1028.3875,199.4046 1038.3465,189.4456 1038.3465,170.7216 L1038.3465,68.7386 C1038.3465,50.0156 1028.3875,40.0566 1009.6665,40.0566 Z" id="Fill-21" fill="#FEFEFE"></path>
                    <path d="M1184.1398,173.1127 L1136.7338,173.1127 L1136.7338,43.2427 C1136.7338,41.2537 1135.7378,40.0567 1133.5478,40.0567 L1112.8328,40.0567 C1110.8408,40.0567 1109.6458,41.2537 1109.6458,43.2427 L1109.6458,196.2167 C1109.6458,198.4087 1110.8408,199.4047 1112.8328,199.4047 L1184.1398,199.4047 C1186.3318,199.4047 1187.3278,198.4087 1187.3278,196.2167 L1187.3278,176.2987 C1187.3278,174.3087 1186.3318,173.1127 1184.1398,173.1127" id="Fill-23" fill="#ED262B"></path>
                    <path d="M1251.7267,144.4291 L1264.4747,74.9151 L1277.2227,144.4291 L1251.7267,144.4291 Z M1281.8037,42.8461 C1281.4047,40.8541 1280.2107,40.0571 1278.4177,40.0571 L1250.7307,40.0571 C1248.9387,40.0571 1247.7427,40.8541 1247.3457,42.8461 L1214.2797,196.0191 C1213.6837,198.2081 1214.6797,199.4051 1216.8697,199.4051 L1238.1827,199.4051 C1239.9757,199.4051 1240.9717,198.4081 1241.3687,196.6161 L1246.7467,167.5351 L1282.2007,167.5351 L1287.7787,196.6161 C1288.1777,198.4081 1289.1737,199.4051 1290.9667,199.4051 L1312.0807,199.4051 C1314.4697,199.4051 1315.2657,198.2081 1314.8697,196.0191 L1281.8037,42.8461 Z" id="Fill-25" fill="#ED262B"></path>
                    <path d="M1398.9865,98.8158 C1398.9865,103.7958 1396.1975,106.5858 1391.0195,106.5858 L1372.8945,106.5858 L1372.8945,66.3488 L1391.0195,66.3488 C1396.3975,66.3488 1398.9865,69.1378 1398.9865,74.3158 L1398.9865,98.8158 Z M1398.9865,165.1458 C1398.9865,170.5238 1396.1975,173.1128 1391.0195,173.1128 L1372.8945,173.1128 L1372.8945,132.8778 L1391.0195,132.8778 C1396.3975,132.8778 1398.9865,135.6658 1398.9865,140.8438 L1398.9865,165.1458 Z M1425.4785,105.3888 L1425.4785,68.7388 C1425.4785,50.0158 1415.3225,40.0568 1396.5965,40.0568 L1348.7945,40.0568 C1346.8015,40.0568 1345.6055,41.0528 1345.6055,43.2428 L1345.6055,196.2158 C1345.6055,198.2088 1346.8015,199.4048 1348.7945,199.4048 L1396.5965,199.4048 C1415.3225,199.4048 1425.4785,189.4458 1425.4785,170.7208 L1425.4785,134.0728 C1425.4785,126.7028 1420.1005,121.1258 1412.9295,119.9288 L1412.9295,119.5328 C1420.1005,118.3368 1425.4785,112.7588 1425.4785,105.3888 Z" id="Fill-27" fill="#ED262B"></path>
                    <g id="Group-31">
                        <mask id="mask-2" fill="white">
                            <use xlink:href="#path-1"></use>
                        </mask>
                        <g id="Clip-30"></g>
                        <path d="M122.6867,12.936 C61.8257,12.936 12.3107,62.451 12.3107,123.313 C12.3107,184.175 61.8257,233.69 122.6867,233.69 C183.5487,233.69 233.0637,184.175 233.0637,123.313 C233.0637,62.451 183.5487,12.936 122.6867,12.936 M122.6867,246 C55.0377,246 -0.0003,190.962 -0.0003,123.313 C-0.0003,55.664 55.0377,0.625 122.6867,0.625 C190.3367,0.625 245.3747,55.664 245.3747,123.313 C245.3747,190.962 190.3367,246 122.6867,246" id="Fill-29" fill="#FEFEFE" mask="url(#mask-2)"></path>
                    </g>
                    <path d="M79.7707,81.602 C71.5717,82.701 56.1637,85.582 51.9637,90.087 C46.4937,95.955 46.8157,105.178 52.6817,110.65 C55.5247,113.3 59.2197,114.686 63.1127,114.549 C66.9967,114.414 70.5937,112.774 73.2447,109.931 C77.4487,105.424 79.2477,89.855 79.7707,81.602 M62.5877,119.174 C57.7217,119.174 53.1107,117.361 49.5337,114.025 C41.8047,106.818 41.3807,94.668 48.5877,86.938 C55.3297,79.708 79.2637,76.972 81.9717,76.685 L84.6197,76.403 L84.5227,79.064 C84.4227,81.784 83.3627,105.85 76.6217,113.081 C73.1287,116.824 68.3887,118.985 63.2727,119.163 C63.0447,119.171 62.8157,119.174 62.5877,119.174" id="Fill-32" fill="#ED262B"></path>
                    <path d="M79.7707,81.602 C71.5717,82.701 56.1637,85.582 51.9637,90.087 C46.4937,95.955 46.8157,105.178 52.6817,110.65 C55.5247,113.3 59.2197,114.686 63.1127,114.549 C66.9967,114.414 70.5937,112.774 73.2447,109.931 C77.4487,105.424 79.2477,89.855 79.7707,81.602 Z M62.5877,119.174 C57.7217,119.174 53.1107,117.361 49.5337,114.025 C41.8047,106.818 41.3807,94.668 48.5877,86.938 C55.3297,79.708 79.2637,76.972 81.9717,76.685 L84.6197,76.403 L84.5227,79.064 C84.4227,81.784 83.3627,105.85 76.6217,113.081 C73.1287,116.824 68.3887,118.985 63.2727,119.163 C63.0447,119.171 62.8157,119.174 62.5877,119.174 Z" id="Stroke-34" stroke="#ED262B" stroke-width="0.25"></path>
                    <path d="M182.7814,132.0658 C182.6084,132.0658 182.4354,132.0698 182.2614,132.0758 C178.3784,132.2108 174.7794,133.8498 172.1304,136.6928 C167.9264,141.1998 166.1274,156.7698 165.6034,165.0238 C173.8024,163.9238 189.2104,161.0418 193.4104,156.5368 C196.0594,153.6948 197.4444,149.9908 197.3094,146.1078 C197.1734,142.2248 195.5344,138.6258 192.6914,135.9748 C189.9764,133.4448 186.4744,132.0658 182.7814,132.0658 Z M160.7554,170.2228 L160.8514,167.5618 C160.9514,164.8418 162.0114,140.7748 168.7534,133.5438 C172.2444,129.7998 176.9854,127.6408 182.1004,127.4618 C187.2054,127.2798 192.0944,129.1078 195.8404,132.5998 C199.5844,136.0898 201.7444,140.8308 201.9234,145.9468 C202.1014,151.0618 200.2774,155.9418 196.7864,159.6858 C190.0444,166.9168 166.1094,169.6528 163.4024,169.9408 L160.7554,170.2228 Z" id="Fill-36" fill="#ED262B"></path>
                    <path d="M182.7814,132.0658 C182.6084,132.0658 182.4354,132.0698 182.2614,132.0758 C178.3784,132.2108 174.7794,133.8498 172.1304,136.6928 C167.9264,141.1998 166.1274,156.7698 165.6034,165.0238 C173.8024,163.9238 189.2104,161.0418 193.4104,156.5368 C196.0594,153.6948 197.4444,149.9908 197.3094,146.1078 C197.1734,142.2248 195.5344,138.6258 192.6914,135.9748 C189.9764,133.4448 186.4744,132.0658 182.7814,132.0658 Z M160.7554,170.2228 L160.8514,167.5618 C160.9514,164.8418 162.0114,140.7748 168.7534,133.5438 C172.2444,129.7998 176.9854,127.6408 182.1004,127.4618 C187.2054,127.2798 192.0944,129.1078 195.8404,132.5998 C199.5844,136.0898 201.7444,140.8308 201.9234,145.9468 C202.1014,151.0618 200.2774,155.9418 196.7864,159.6858 C190.0444,166.9168 166.1094,169.6528 163.4024,169.9408 L160.7554,170.2228 Z" id="Stroke-38" stroke="#ED262B" stroke-width="0.25"></path>
                    <path d="M80.9758,166.2289 C82.0758,174.4279 84.9578,189.8349 89.4618,194.0359 C95.3288,199.5039 104.5528,199.1859 110.0248,193.3159 C112.6738,190.4739 114.0588,186.7699 113.9238,182.8869 C113.7888,179.0039 112.1488,175.4049 109.3058,172.7539 C104.8018,168.5549 89.2318,166.7529 80.9758,166.2289 M99.3768,202.5499 C94.6938,202.5499 90.0008,200.8489 86.3138,197.4109 C79.0828,190.6689 76.3468,166.7359 76.0578,164.0299 L75.7768,161.3809 L78.4368,161.4779 C81.1578,161.5769 105.2258,162.6359 112.4548,169.3789 C116.1988,172.8699 118.3588,177.6099 118.5378,182.7259 C118.7158,187.8409 116.8918,192.7209 113.4008,196.4649 C109.6318,200.5059 104.5098,202.5499 99.3768,202.5499" id="Fill-40" fill="#ED262B"></path>
                    <path d="M80.9758,166.2289 C82.0758,174.4279 84.9578,189.8349 89.4618,194.0359 C95.3288,199.5039 104.5528,199.1859 110.0248,193.3159 C112.6738,190.4739 114.0588,186.7699 113.9238,182.8869 C113.7888,179.0039 112.1488,175.4049 109.3058,172.7539 C104.8018,168.5549 89.2318,166.7529 80.9758,166.2289 Z M99.3768,202.5499 C94.6938,202.5499 90.0008,200.8489 86.3138,197.4109 C79.0828,190.6689 76.3468,166.7359 76.0578,164.0299 L75.7768,161.3809 L78.4368,161.4779 C81.1578,161.5769 105.2258,162.6359 112.4548,169.3789 C116.1988,172.8699 118.3588,177.6099 118.5378,182.7259 C118.7158,187.8409 116.8918,192.7209 113.4008,196.4649 C109.6318,200.5059 104.5098,202.5499 99.3768,202.5499 Z" id="Stroke-42" stroke="#ED262B" stroke-width="0.25"></path>
                    <path d="M146.0031,48.6811 C145.8301,48.6811 145.6561,48.6851 145.4821,48.6911 C141.5981,48.8261 138.0001,50.4651 135.3501,53.3081 C129.8791,59.1751 130.2001,68.3991 136.0671,73.8701 C140.5711,78.0691 156.1431,79.8701 164.3991,80.3971 C163.2981,72.1961 160.4151,56.7881 155.9121,52.5881 C153.1971,50.0581 149.6961,48.6811 146.0031,48.6811 Z M169.5981,85.2441 L166.9371,85.1481 C164.2161,85.0491 140.1491,83.9881 132.9191,77.2451 C125.1911,70.0381 124.7671,57.8891 131.9731,50.1591 C139.1801,42.4301 151.3301,42.0031 159.0611,49.2131 C166.2901,55.9541 169.0271,79.8901 169.3151,82.5961 L169.5981,85.2441 Z" id="Fill-44" fill="#ED262B"></path>
                    <path d="M146.0031,48.6811 C145.8301,48.6811 145.6561,48.6851 145.4821,48.6911 C141.5981,48.8261 138.0001,50.4651 135.3501,53.3081 C129.8791,59.1751 130.2001,68.3991 136.0671,73.8701 C140.5711,78.0691 156.1431,79.8701 164.3991,80.3971 C163.2981,72.1961 160.4151,56.7881 155.9121,52.5881 C153.1971,50.0581 149.6961,48.6811 146.0031,48.6811 Z M169.5981,85.2441 L166.9371,85.1481 C164.2161,85.0491 140.1491,83.9881 132.9191,77.2451 C125.1911,70.0381 124.7671,57.8891 131.9731,50.1591 C139.1801,42.4301 151.3301,42.0031 159.0611,49.2131 C166.2901,55.9541 169.0271,79.8901 169.3151,82.5961 L169.5981,85.2441 Z" id="Stroke-46" stroke="#ED262B" stroke-width="0.25"></path>
                    <path d="M98.7531,48.9291 C90.7311,48.9291 84.2041,55.4551 84.2041,63.4771 C84.2041,71.5001 90.7311,78.0271 98.7531,78.0271 C104.9111,78.0271 117.5281,68.7231 123.9241,63.4771 C117.5281,58.2311 104.9111,48.9291 98.7531,48.9291 M98.7531,82.6431 C88.1861,82.6431 79.5881,74.0461 79.5881,63.4771 C79.5881,52.9101 88.1861,44.3131 98.7531,44.3131 C108.6391,44.3131 126.9641,59.9501 129.0211,61.7331 L131.0331,63.4771 L129.0211,65.2221 C126.9651,67.0041 108.6391,82.6431 98.7531,82.6431" id="Fill-48" fill="#ED262B"></path>
                    <path d="M98.7531,48.9291 C90.7311,48.9291 84.2041,55.4551 84.2041,63.4771 C84.2041,71.5001 90.7311,78.0271 98.7531,78.0271 C104.9111,78.0271 117.5281,68.7231 123.9241,63.4771 C117.5281,58.2311 104.9111,48.9291 98.7531,48.9291 Z M98.7531,82.6431 C88.1861,82.6431 79.5881,74.0461 79.5881,63.4771 C79.5881,52.9101 88.1861,44.3131 98.7531,44.3131 C108.6391,44.3131 126.9641,59.9501 129.0211,61.7331 L131.0331,63.4771 L129.0211,65.2221 C126.9651,67.0041 108.6391,82.6431 98.7531,82.6431 Z" id="Stroke-50" stroke="#ED262B" stroke-width="0.25"></path>
                    <path d="M121.4504,183.1469 C127.8464,188.3929 140.4634,197.6949 146.6214,197.6949 C154.6434,197.6949 161.1704,191.1679 161.1704,183.1469 C161.1704,175.1239 154.6434,168.5969 146.6214,168.5969 C140.4634,168.5969 127.8464,177.9009 121.4504,183.1469 M146.6214,202.3109 C136.7354,202.3109 118.4104,186.6739 116.3524,184.8919 L114.3414,183.1469 L116.3524,181.4029 C118.4094,179.6209 136.7354,163.9809 146.6214,163.9809 C157.1884,163.9809 165.7864,172.5789 165.7864,183.1469 C165.7864,193.7139 157.1884,202.3109 146.6214,202.3109" id="Fill-52" fill="#ED262B"></path>
                    <path d="M121.4504,183.1469 C127.8464,188.3929 140.4634,197.6949 146.6214,197.6949 C154.6434,197.6949 161.1704,191.1679 161.1704,183.1469 C161.1704,175.1239 154.6434,168.5969 146.6214,168.5969 C140.4634,168.5969 127.8464,177.9009 121.4504,183.1469 Z M146.6214,202.3109 C136.7354,202.3109 118.4104,186.6739 116.3524,184.8919 L114.3414,183.1469 L116.3524,181.4029 C118.4094,179.6209 136.7354,163.9809 146.6214,163.9809 C157.1884,163.9809 165.7864,172.5789 165.7864,183.1469 C165.7864,193.7139 157.1884,202.3109 146.6214,202.3109 Z" id="Stroke-54" stroke="#ED262B" stroke-width="0.25"></path>
                    <path d="M62.8527,122.0766 C57.6067,128.4726 48.3047,141.0876 48.3047,147.2456 C48.3047,155.2676 54.8307,161.7946 62.8527,161.7946 C70.8747,161.7946 77.4017,155.2676 77.4017,147.2456 C77.4017,141.0816 68.0997,128.4696 62.8527,122.0766 M62.8527,166.4116 C52.2857,166.4116 43.6877,157.8136 43.6877,147.2456 C43.6877,137.3606 59.3267,119.0366 61.1097,116.9786 L62.8527,114.9676 L64.5967,116.9786 C66.3797,119.0366 82.0177,137.3606 82.0177,147.2456 C82.0177,157.8136 73.4207,166.4116 62.8527,166.4116" id="Fill-56" fill="#ED262B"></path>
                    <path d="M62.8527,122.0766 C57.6067,128.4726 48.3047,141.0876 48.3047,147.2456 C48.3047,155.2676 54.8307,161.7946 62.8527,161.7946 C70.8747,161.7946 77.4017,155.2676 77.4017,147.2456 C77.4017,141.0816 68.0997,128.4696 62.8527,122.0766 Z M62.8527,166.4116 C52.2857,166.4116 43.6877,157.8136 43.6877,147.2456 C43.6877,137.3606 59.3267,119.0366 61.1097,116.9786 L62.8527,114.9676 L64.5967,116.9786 C66.3797,119.0366 82.0177,137.3606 82.0177,147.2456 C82.0177,157.8136 73.4207,166.4116 62.8527,166.4116 Z" id="Stroke-58" stroke="#ED262B" stroke-width="0.25"></path>
                    <path d="M182.5207,84.8295 C174.4997,84.8295 167.9727,91.3555 167.9727,99.3795 C167.9727,105.5435 177.2747,118.1555 182.5207,124.5485 C187.7667,118.1525 197.0697,105.5375 197.0697,99.3795 C197.0697,91.3555 190.5427,84.8295 182.5207,84.8295 Z M182.5207,131.6575 L180.7777,129.6445 C178.9947,127.5885 163.3557,109.2645 163.3557,99.3795 C163.3557,88.8095 171.9537,80.2135 182.5207,80.2135 C193.0887,80.2135 201.6857,88.8095 201.6857,99.3795 C201.6857,109.2645 186.0477,127.5885 184.2647,129.6445 L182.5207,131.6575 Z" id="Fill-60" fill="#ED262B"></path>
                    <path d="M182.5207,84.8295 C174.4997,84.8295 167.9727,91.3555 167.9727,99.3795 C167.9727,105.5435 177.2747,118.1555 182.5207,124.5485 C187.7667,118.1525 197.0697,105.5375 197.0697,99.3795 C197.0697,91.3555 190.5427,84.8295 182.5207,84.8295 Z M182.5207,131.6575 L180.7777,129.6445 C178.9947,127.5885 163.3557,109.2645 163.3557,99.3795 C163.3557,88.8095 171.9537,80.2135 182.5207,80.2135 C193.0887,80.2135 201.6857,88.8095 201.6857,99.3795 C201.6857,109.2645 186.0477,127.5885 184.2647,129.6445 L182.5207,131.6575 Z" id="Stroke-62" stroke="#ED262B" stroke-width="0.25"></path>
                </g>
            </g>
        </g>
    </g>
</svg>