<?xml version="1.0" encoding="UTF-8"?>
<svg width="440px" height="61px" viewBox="0 0 440 61" version="1.1" xmlns="http://www.w3.org/2000/svg" xmlns:xlink="http://www.w3.org/1999/xlink">
    <!-- Generator: Sketch 52.6 (67491) - http://www.bohemiancoding.com/sketch -->
    <title>Group 65</title>
    <desc>Created with Sketch.</desc>
    <g id="Page-1" stroke="none" stroke-width="1" fill="none" fill-rule="evenodd">
        <g id="Artboard-Copy">
            <g id="Group-65">
                <g id="Group">
                    <path d="M321.72691,32.1253492 L321.806189,32.1253492 L321.72691,32.1253492 Z" id="Fill-1" fill="#BF272D"></path>
                    <path d="M371.276856,4.05883492 L371.356135,4.05883492 L371.276856,4.05883492 Z" id="Fill-2" fill="#BF272D"></path>
                    <path d="M371.356234,4.05883492 L371.276955,3.98010476 L371.356234,4.05883492 Z" id="Fill-3" fill="#BF272D"></path>
                    <path d="M326.682261,32.1253492 L326.761541,32.1253492 L326.682261,32.1253492 Z" id="Fill-4" fill="#BF272D"></path>
                    <path d="M433.864973,6.47073333 C434.724162,6.47073333 435.21173,6.1814 435.21173,5.44035238 C435.21173,4.7298127 434.724162,4.44047937 433.848126,4.44047937 L432.696595,4.44047937 L432.696595,6.47073333 L433.864973,6.47073333 Z M431.414252,3.31168571 L433.929387,3.31168571 C435.536775,3.31168571 436.479207,4.00647937 436.479207,5.3754 C436.479207,6.43924127 435.926234,7.00413016 435.097766,7.27673333 L436.575333,10.0657492 L435.196865,10.0657492 L433.83227,7.43813016 L432.696595,7.43813016 L432.696595,10.0657492 L431.414252,10.0657492 L431.414252,3.31168571 Z M438.977495,6.8269873 C438.977495,3.8765746 436.721009,1.55600317 433.783712,1.55600317 C430.829568,1.55600317 428.605784,3.84508254 428.605784,6.79352698 C428.605784,9.74393968 430.86227,12.0654952 433.816414,12.0654952 C436.753712,12.0654952 438.977495,9.77444762 438.977495,6.8269873 Z M427.584072,6.8269873 C427.584072,3.36187619 430.310288,0.620098413 433.816414,0.620098413 C437.306685,0.620098413 439.999207,3.32841587 439.999207,6.79352698 C439.999207,10.2596222 437.272991,12.9994317 433.783712,12.9994317 C430.277586,12.9994317 427.584072,10.2930825 427.584072,6.8269873 Z" id="Fill-5" fill="#FF141E"></path>
                    <polygon id="Fill-7" fill="#FFFFFF" points="257.143333 52.1163143 254.20009 51.3516476 265.354685 9.0558381 268.297928 9.82050476"></polygon>
                    <path d="M25.0085495,22.9596825 C25.0085495,24.823619 23.9571081,25.8667937 22.0058468,25.8667937 L15.1769279,25.8667937 L15.1769279,10.8126032 L22.0058468,10.8126032 C24.0334144,10.8126032 25.0085495,11.8567619 25.0085495,13.7935238 L25.0085495,22.9596825 Z M25.0085495,47.778381 C25.0085495,49.7899365 23.9571081,50.7583175 22.0058468,50.7583175 L15.1769279,50.7583175 L15.1769279,35.704127 L22.0058468,35.704127 C24.0334144,35.704127 25.0085495,36.7482857 25.0085495,38.6850476 L25.0085495,47.778381 Z M24.1077387,0.975269841 L1.82431532,0.956571429 C1.12269369,0.956571429 0.684675676,1.7104127 1.03548649,2.31368254 L4.8953964,8.95555556 L4.8953964,59.4028889 C4.8953964,60.147873 5.3462973,60.5956508 6.09746847,60.5956508 L24.1077387,60.5956508 C31.1626036,60.5956508 34.9898108,56.869746 34.9898108,49.863746 L34.9898108,36.1509206 C34.9898108,33.394381 32.9622432,31.3070476 30.2608018,30.8592698 L30.2608018,30.7116508 C32.9622432,30.263873 34.9898108,28.1775238 34.9898108,25.42 L34.9898108,11.7061905 C34.9898108,4.7011746 31.1626036,0.975269841 24.1077387,0.975269841 Z" id="Fill-9" fill="#FFFFFF"></path>
                    <path d="M75.8365766,0.975368254 L68.9323423,0.975368254 C68.1078378,0.975368254 67.432973,1.64654286 67.432973,2.46632063 L67.432973,47.7784794 C67.432973,49.7900349 66.3815315,50.7584159 64.4292793,50.7584159 L60.5287387,50.7584159 C58.5764865,50.7584159 57.526036,49.7900349 57.526036,47.7784794 L57.526036,2.46632063 C57.526036,1.64654286 56.8511712,0.975368254 56.0256757,0.975368254 L48.8211712,0.975368254 C47.9946847,0.975368254 47.3198198,1.64654286 47.3198198,2.46632063 L47.3198198,49.8638444 C47.3198198,56.8698444 51.0717117,60.5957492 58.1265766,60.5957492 L66.5311712,60.5957492 C73.586036,60.5957492 77.3389189,56.8698444 77.3389189,49.8638444 L77.3389189,2.46632063 C77.3389189,1.64654286 76.6630631,0.975368254 75.8365766,0.975368254" id="Fill-11" fill="#FFFFFF"></path>
                    <path d="M108.880874,0.975368254 L100.476279,0.975368254 C93.4967297,0.975368254 89.6685315,4.70127302 89.6685315,11.7062889 L89.6685315,29.2946063 C89.6685315,30.7117492 90.3443874,31.6053365 91.6951081,32.0521302 L109.481414,37.8653683 L109.481414,47.7784794 C109.481414,49.7900349 108.430964,50.7584159 106.478712,50.7584159 L102.87745,50.7584159 C101.001505,50.7584159 99.8757387,49.7900349 99.8757387,47.7784794 L99.8757387,42.0390508 C99.8757387,41.219273 99.5001532,40.847273 98.6746577,40.847273 L90.8706036,40.847273 C90.1194324,40.847273 89.6685315,41.219273 89.6685315,42.0390508 L89.6685315,49.8638444 C89.6685315,56.8698444 93.4967297,60.5957492 100.476279,60.5957492 L108.880874,60.5957492 C115.935739,60.5957492 119.687631,56.8698444 119.687631,49.8638444 L119.687631,32.6494952 C119.687631,31.2323524 119.012766,30.4135587 117.736369,29.8909873 L99.8757387,24.0787333 L99.8757387,13.7926381 C99.8757387,11.8568603 101.001505,10.8127016 102.87745,10.8127016 L106.478712,10.8127016 C108.505288,10.8127016 109.481414,11.8568603 109.481414,13.7926381 L109.481414,19.6068603 C109.481414,20.3518444 109.932315,20.7996222 110.681505,20.7996222 L118.48655,20.7996222 C119.312045,20.7996222 119.687631,20.3518444 119.687631,19.6068603 L119.687631,11.7062889 C119.687631,4.70127302 115.935739,0.975368254 108.880874,0.975368254" id="Fill-13" fill="#FFFFFF"></path>
                    <path d="M160.76173,0.975368254 L153.032,0.975368254 C152.28182,0.975368254 151.830919,1.42314603 151.830919,2.16714603 L151.830919,25.8668921 L142.225243,25.8668921 L142.225243,2.16714603 C142.225243,1.42314603 141.775333,0.975368254 141.025153,0.975368254 L133.295423,0.975368254 C132.394613,0.975368254 132.020018,1.42314603 132.020018,2.16714603 L132.020018,59.4029873 C132.020018,60.1479714 132.394613,60.5957492 133.295423,60.5957492 L141.025153,60.5957492 C141.775333,60.5957492 142.225243,60.1479714 142.225243,59.4029873 L142.225243,35.7042254 L151.830919,35.7042254 L151.830919,59.4029873 C151.830919,60.1479714 152.28182,60.5957492 153.032,60.5957492 L160.76173,60.5957492 C161.66155,60.5957492 162.037135,60.1479714 162.037135,59.4029873 L162.037135,2.16714603 C162.037135,1.42314603 161.66155,0.975368254 160.76173,0.975368254" id="Fill-15" fill="#FFFFFF"></path>
                    <path d="M189.603135,0.975368254 L175.794667,2.83930476 C174.818541,2.91311429 174.369622,3.43470159 174.369622,4.40308254 L174.369622,11.5586698 C174.369622,12.5260667 174.969171,13.0496222 175.945297,12.8990508 L180.598,12.303654 L180.598,59.4029873 C180.598,60.1479714 180.973586,60.5957492 181.79809,60.5957492 L189.603135,60.5957492 C190.353315,60.5957492 190.804216,60.1479714 190.804216,59.4029873 L190.804216,2.16714603 C190.804216,1.42314603 190.353315,0.975368254 189.603135,0.975368254" id="Fill-17" fill="#FFFFFF"></path>
                    <path d="M223.99845,47.7780857 C223.99845,49.7896413 222.947009,50.7580222 220.996739,50.7580222 L214.092505,50.7580222 L214.092505,10.8123079 L220.996739,10.8123079 C222.947009,10.8123079 223.99845,11.8564667 223.99845,13.8680222 L223.99845,47.7780857 Z M223.098631,0.974974603 L205.087369,0.974974603 C204.261874,0.974974603 203.886288,1.42275238 203.886288,2.16675238 L203.886288,59.4035778 C203.886288,60.2233556 204.261874,60.5953556 205.087369,60.5953556 L223.098631,60.5953556 C230.151514,60.5953556 233.904396,56.8694508 233.904396,49.8634508 L233.904396,11.781673 C233.904396,4.77665714 230.151514,0.974974603 223.098631,0.974974603 Z" id="Fill-19" fill="#FFFFFF"></path>
                    <path d="M266.573306,48.0010889 C266.573306,50.0126444 265.522856,50.9810254 263.571595,50.9810254 L259.218171,50.9810254 C257.267901,50.9810254 256.21745,50.0126444 256.21745,48.0010889 L256.21745,13.5704222 C256.21745,11.6326762 257.267901,10.5895016 259.218171,10.5895016 L263.571595,10.5895016 C265.522856,10.5895016 266.573306,11.6326762 266.573306,13.5704222 L266.573306,48.0010889 Z M265.447541,0.975565079 L257.041955,0.975565079 C249.989072,0.975565079 246.236189,4.70146984 246.236189,11.7064857 L246.236189,49.8640413 C246.236189,56.8700413 249.989072,60.595946 257.041955,60.595946 L265.447541,60.595946 C272.501414,60.595946 276.254297,56.8700413 276.254297,49.8640413 L276.254297,11.7064857 C276.254297,4.70146984 272.501414,0.975565079 265.447541,0.975565079 Z" id="Fill-21" fill="#FFFFFF"></path>
                    <path d="M331.182252,50.7583175 L313.322613,50.7583175 L313.322613,2.16704762 C313.322613,1.42304762 312.947027,0.975269841 312.122523,0.975269841 L304.317477,0.975269841 C303.567297,0.975269841 303.116396,1.42304762 303.116396,2.16704762 L303.116396,59.4028889 C303.116396,60.2226667 303.567297,60.5956508 304.317477,60.5956508 L331.182252,60.5956508 C332.008739,60.5956508 332.384324,60.2226667 332.384324,59.4028889 L332.384324,51.9500952 C332.384324,51.2060952 332.008739,50.7583175 331.182252,50.7583175" id="Fill-23" fill="#FF141E"></path>
                    <path d="M356.647054,40.0262159 L361.450387,14.0177079 L366.25273,40.0262159 L356.647054,40.0262159 Z M367.979036,2.01923175 C367.828405,1.27326349 367.378495,0.975073016 366.70264,0.975073016 L356.271468,0.975073016 C355.595613,0.975073016 355.145703,1.27326349 354.996063,2.01923175 L342.538315,59.3288825 C342.31336,60.1476762 342.688946,60.595454 343.51345,60.595454 L351.544441,60.595454 C352.219306,60.595454 352.594892,60.2224698 352.744532,59.5522794 L354.770117,48.6717714 L368.128676,48.6717714 L370.229577,59.5522794 C370.379216,60.2224698 370.754802,60.595454 371.430658,60.595454 L379.385342,60.595454 C380.286153,60.595454 380.585432,60.1476762 380.436784,59.3288825 L367.979036,2.01923175 Z" id="Fill-25" fill="#FF141E"></path>
                    <path d="M412.127982,22.9596825 C412.127982,24.823619 411.077532,25.8667937 409.127261,25.8667937 L402.297351,25.8667937 L402.297351,10.8126032 L409.127261,10.8126032 C411.153838,10.8126032 412.127982,11.8567619 412.127982,13.7935238 L412.127982,22.9596825 Z M412.127982,47.778381 C412.127982,49.7899365 411.077532,50.7583175 409.127261,50.7583175 L402.297351,50.7583175 L402.297351,35.704127 L409.127261,35.704127 C411.153838,35.704127 412.127982,36.7482857 412.127982,38.6850476 L412.127982,47.778381 Z M422.109243,25.42 L422.109243,11.7061905 C422.109243,4.7011746 418.283027,0.975269841 411.228162,0.975269841 L393.217892,0.975269841 C392.467712,0.975269841 392.016811,1.34825397 392.016811,2.16704762 L392.016811,59.4028889 C392.016811,60.147873 392.467712,60.5956508 393.217892,60.5956508 L411.228162,60.5956508 C418.283027,60.5956508 422.109243,56.869746 422.109243,49.863746 L422.109243,36.1509206 C422.109243,33.394381 420.082667,31.3070476 417.382216,30.8592698 L417.382216,30.7116508 C420.082667,30.263873 422.109243,28.1775238 422.109243,25.42 Z" id="Fill-27" fill="#FF141E"></path>
                </g>
                <g id="Group-64" transform="translate(0.000000, 0.283232)"></g>
            </g>
        </g>
    </g>
</svg>