<?xml version="1.0" standalone="no"?>
<!DOCTYPE svg PUBLIC "-//W3C//DTD SVG 20010904//EN"
 "http://www.w3.org/TR/2001/REC-SVG-20010904/DTD/svg10.dtd">
<svg version="1.0" xmlns="http://www.w3.org/2000/svg"
 width="934.000000pt" height="992.000000pt" viewBox="0 0 934.000000 992.000000"
 preserveAspectRatio="xMidYMid meet">
<metadata>
Created by potrace 1.15, written by Peter Selinger 2001-2017
</metadata>
<g transform="translate(0.000000,992.000000) scale(0.100000,-0.100000)"
fill="#000000" stroke="none">
<path d="M4525 9913 c-1057 -31 -2082 -427 -2890 -1117 -134 -115 -384 -365
-504 -505 -544 -634 -908 -1393 -1055 -2201 -272 -1494 189 -3009 1244 -4093
539 -554 1169 -949 1895 -1189 346 -115 716 -187 1108 -219 195 -15 686 -7
867 15 430 53 842 156 1218 307 191 76 527 246 705 356 1077 667 1841 1734
2111 2948 355 1594 -126 3224 -1285 4360 -368 360 -733 622 -1178 845 -696
348 -1460 517 -2236 493z m1260 -1677 c110 -35 197 -88 280 -171 59 -58 80
-89 128 -185 31 -63 72 -163 91 -221 65 -200 134 -538 167 -819 6 -58 13 -106
15 -108 1 -2 24 13 51 32 126 90 257 130 428 130 212 0 373 -65 521 -211 155
-153 245 -400 215 -592 -33 -212 -226 -558 -510 -912 l-69 -87 82 -26 c245
-81 433 -284 493 -534 21 -88 21 -256 -1 -345 -34 -143 -128 -298 -228 -377
-110 -88 -316 -172 -573 -236 -149 -37 -421 -86 -570 -104 -49 -6 -104 -13
-122 -16 l-32 -5 34 -48 c163 -227 179 -558 38 -801 -49 -83 -190 -224 -273
-273 -36 -21 -101 -49 -145 -64 -68 -23 -98 -26 -205 -27 -106 -1 -135 3 -195
23 -207 70 -501 247 -804 485 l-85 66 -26 -78 c-78 -234 -257 -408 -495 -482
-144 -45 -354 -35 -490 23 -244 104 -366 269 -475 642 -58 199 -150 697 -150
813 0 39 -6 40 -51 6 -92 -69 -223 -119 -351 -135 -269 -33 -544 94 -699 322
-85 126 -122 245 -123 399 -1 90 3 117 28 195 66 199 229 472 465 775 45 57
81 107 81 111 0 4 -19 10 -41 14 -58 10 -203 85 -274 142 -116 94 -204 230
-246 378 -18 62 -23 106 -23 195 0 140 17 210 80 339 56 115 153 218 258 276
228 127 613 224 1153 290 l52 7 -34 47 c-50 70 -103 187 -120 266 -21 101 -19
255 5 349 82 322 378 556 704 556 113 0 201 -23 342 -90 184 -86 394 -222 634
-409 l104 -81 26 78 c83 252 287 439 545 498 97 22 291 13 390 -20z m648
-7058 c43 -112 46 -124 31 -135 -23 -17 -28 -12 -54 54 -33 84 -38 83 -25 -2
11 -69 11 -77 -5 -85 -15 -8 -25 1 -60 56 -24 35 -44 63 -46 61 -2 -2 8 -34
23 -71 23 -57 25 -69 12 -77 -7 -5 -18 -7 -24 -6 -8 3 -105 230 -105 248 0 4
13 12 29 17 29 10 31 9 78 -60 54 -79 60 -74 44 30 -9 59 -9 69 6 80 37 27 47
15 96 -110z m-3345 93 c11 -6 9 -23 -7 -87 -11 -43 -19 -80 -17 -81 1 -2 23
28 47 67 65 104 88 93 71 -32 -5 -40 -9 -74 -8 -75 1 -1 19 30 41 70 21 40 39
73 41 75 1 2 12 -1 23 -8 21 -10 20 -13 -31 -109 -76 -141 -80 -145 -107 -136
-25 7 -25 18 -5 145 5 32 2 30 -43 -36 -43 -63 -50 -70 -70 -63 -29 10 -28 14
2 155 14 64 25 117 25 120 0 7 24 4 38 -5z m3066 -93 c24 -38 68 -174 64 -199
-5 -35 -95 -72 -125 -51 -19 12 -82 200 -75 224 11 44 112 63 136 26z m-2784
-34 c0 -13 -5 -46 -11 -74 -6 -28 -9 -54 -6 -56 3 -3 22 26 42 63 21 37 39 69
40 71 1 1 10 -1 19 -4 15 -6 17 -17 12 -93 l-6 -86 20 40 c11 22 26 57 35 78
16 40 23 44 47 25 14 -12 10 -26 -42 -135 -55 -116 -60 -122 -82 -114 -22 8
-23 12 -20 92 l3 84 -41 -72 c-40 -72 -52 -81 -79 -64 -13 8 -12 26 3 133 21
151 20 148 45 141 14 -3 21 -14 21 -29z m2592 -21 c19 -22 32 -73 19 -73 -5 0
-16 -3 -24 -6 -10 -3 -17 3 -21 20 -7 27 -21 32 -45 17 -12 -8 -11 -22 9 -90
12 -45 28 -81 34 -81 24 0 39 19 34 43 -4 20 0 27 16 31 26 7 36 -9 36 -57 0
-34 -4 -40 -35 -53 -46 -19 -79 -18 -97 4 -18 21 -58 159 -58 202 0 25 6 33
33 45 44 19 81 18 99 -2z m-2308 -63 c-1 -14 -4 -52 -7 -85 l-6 -60 40 78 c57
111 78 104 80 -26 l0 -72 25 70 c13 38 28 73 32 77 11 11 42 -1 42 -15 0 -14
-81 -230 -91 -241 -4 -5 -19 -6 -34 -2 l-26 7 7 79 c3 44 4 80 0 80 -3 0 -22
-32 -41 -71 -30 -59 -40 -70 -58 -67 -21 3 -22 7 -20 88 1 47 4 109 8 138 6
47 9 53 28 50 16 -2 22 -9 21 -28z m2033 2 c17 -11 33 -58 33 -96 0 -17 5 -37
11 -43 6 -6 11 -32 12 -59 2 -44 -1 -50 -26 -62 -15 -7 -46 -14 -69 -15 l-41
-2 -29 129 c-15 71 -27 130 -25 131 4 3 92 23 107 24 8 0 20 -3 27 -7z m-178
-165 c28 -65 51 -123 51 -128 0 -5 -11 -9 -24 -9 -17 0 -26 7 -30 26 -6 21
-11 25 -29 20 -12 -3 -30 -6 -39 -6 -13 0 -18 -8 -18 -29 0 -21 -6 -30 -22
-34 -12 -4 -23 -5 -25 -3 -2 1 1 56 7 122 5 65 10 129 10 141 0 16 7 23 28 25
15 2 30 1 34 -2 4 -3 30 -58 57 -123z m-1488 113 c30 -6 60 -18 67 -27 11 -16
9 -65 -5 -103 -3 -8 -7 -33 -8 -55 -3 -55 -13 -82 -32 -89 -17 -7 -104 2 -121
13 -8 5 -6 43 8 131 11 69 20 128 20 133 0 9 7 9 71 -3z m166 -67 c-4 -27 -9
-78 -13 -115 -7 -68 -7 -68 18 -68 28 0 31 8 44 148 6 67 8 72 30 72 28 0 28
4 13 -132 -14 -132 -17 -138 -77 -138 -79 0 -86 11 -78 116 11 150 15 164 44
164 24 0 24 -2 19 -47z m1044 -60 l14 -108 43 3 c39 3 42 2 42 -22 0 -22 -5
-25 -47 -31 -27 -3 -56 -8 -65 -10 -10 -2 -18 0 -18 3 0 4 -7 54 -15 112 -20
149 -20 160 8 160 22 0 24 -6 38 -107z m-99 78 c5 -4 13 -55 19 -115 10 -98 9
-109 -7 -127 -14 -16 -28 -19 -68 -17 -43 3 -53 7 -62 28 -15 33 -26 201 -15
219 16 25 110 34 133 12z m-670 -8 c10 -9 18 -29 18 -45 0 -23 -4 -28 -24 -28
-16 0 -26 7 -29 21 -7 28 -51 23 -55 -7 -2 -17 7 -25 48 -42 l50 -21 0 -50 c0
-72 -25 -96 -88 -86 -26 4 -50 10 -54 13 -12 12 -18 57 -10 69 8 13 55 6 47
-7 -8 -12 23 -33 40 -26 8 3 15 16 15 29 0 20 -10 28 -51 46 l-52 21 5 50 c3
27 11 56 18 65 17 21 98 20 122 -2z m100 7 c5 0 8 -23 7 -52 -3 -51 -2 -53 24
-56 26 -3 27 -2 27 52 0 53 1 56 25 56 25 0 25 -1 25 -82 0 -46 -3 -107 -6
-135 -6 -48 -9 -53 -32 -53 -24 0 -24 2 -20 55 5 55 5 55 -24 55 -27 0 -28 -1
-28 -55 0 -52 -1 -55 -25 -55 -24 0 -25 2 -25 73 0 128 11 209 27 202 8 -3 19
-5 25 -5z m378 -5 c7 -9 14 -59 18 -123 5 -126 5 -127 -84 -137 l-61 -7 -6 98
c-4 55 -7 118 -7 142 l0 42 64 0 c44 0 67 -5 76 -15z"/>
<path d="M5470 8064 c-265 -52 -450 -271 -450 -534 0 -191 103 -375 252 -448
164 -80 444 -141 819 -176 79 -8 145 -13 146 -12 6 5 -51 314 -83 452 -63 276
-138 470 -213 556 -85 96 -220 157 -361 163 -47 2 -96 1 -110 -1z"/>
<path d="M3640 8045 c-235 -57 -401 -255 -417 -495 -10 -145 49 -298 155 -405
127 -128 312 -189 462 -151 98 25 294 126 464 240 147 98 385 275 386 287 0 9
-285 221 -410 304 -138 91 -320 185 -414 214 -77 24 -146 26 -226 6z"/>
<path d="M4780 7329 c-230 -198 -626 -444 -826 -513 -213 -74 -470 -26 -654
123 l-65 52 -7 -133 c-29 -586 -141 -1051 -295 -1227 -76 -87 -216 -176 -331
-210 l-53 -16 76 -95 c159 -200 310 -429 398 -606 64 -126 91 -201 107 -297
29 -167 -42 -404 -165 -543 l-44 -51 127 -7 c615 -34 1066 -143 1240 -301 88
-79 167 -203 202 -313 9 -29 20 -53 24 -54 5 0 63 41 129 93 262 202 547 375
737 444 100 37 253 45 365 20 90 -20 230 -88 299 -145 36 -30 51 -38 56 -28 4
7 10 76 14 153 16 354 85 752 166 963 82 213 226 354 432 423 l78 26 -91 114
c-258 326 -456 679 -490 873 -29 173 28 380 150 539 47 61 50 67 29 67 -60 0
-327 22 -448 36 -451 52 -748 143 -891 272 -85 76 -165 201 -199 312 -10 30
-21 55 -26 57 -5 1 -25 -11 -44 -28z"/>
<path d="M2820 6784 c-285 -51 -563 -130 -703 -201 -169 -84 -267 -249 -267
-447 0 -239 138 -434 364 -514 100 -36 240 -35 342 0 127 45 227 126 277 225
77 152 154 523 182 876 l7 87 -33 -1 c-19 0 -95 -12 -169 -25z"/>
<path d="M6875 6690 c-262 -35 -465 -261 -466 -520 -1 -60 6 -93 30 -161 59
-160 215 -413 415 -672 l89 -115 41 51 c222 275 416 588 475 764 78 234 -67
516 -317 618 -50 20 -76 26 -182 39 -14 2 -52 0 -85 -4z"/>
<path d="M2287 5132 c-205 -270 -356 -521 -407 -676 -40 -123 -17 -287 59
-404 151 -236 446 -318 698 -195 32 16 84 53 117 83 156 144 212 342 150 528
-57 173 -244 469 -492 781 l-19 23 -106 -140z"/>
<path d="M6870 4893 c-141 -23 -291 -122 -358 -234 -53 -88 -119 -343 -156
-599 -21 -148 -41 -368 -33 -376 9 -9 244 31 427 72 318 73 508 149 595 238
156 161 190 414 82 621 -38 72 -143 180 -214 218 -95 51 -242 77 -343 60z"/>
<path d="M3100 3595 c0 -4 11 -73 25 -154 64 -380 156 -687 244 -815 70 -102
203 -177 350 -198 154 -21 330 40 447 157 163 163 200 414 94 625 -85 169
-223 244 -575 315 -172 34 -585 84 -585 70z"/>
<path d="M5490 3496 c-113 -33 -279 -118 -460 -239 -101 -67 -380 -277 -380
-285 1 -12 216 -174 373 -280 170 -114 378 -223 477 -248 156 -39 350 30 477
170 193 212 184 537 -22 740 -124 122 -322 182 -465 142z"/>
</g>
</svg>
