<?xml version="1.0" encoding="UTF-8"?>
<svg width="345px" height="343px" viewBox="0 0 345 343" version="1.1" xmlns="http://www.w3.org/2000/svg" xmlns:xlink="http://www.w3.org/1999/xlink">
    <!-- Generator: Sketch 52.6 (67491) - http://www.bohemiancoding.com/sketch -->
    <title>Group 38</title>
    <desc>Created with Sketch.</desc>
    <g id="Page-1" stroke="none" stroke-width="1" fill="none" fill-rule="evenodd">
        <g id="logo" transform="translate(-3.000000, -4.000000)">
            <g id="Group-38" transform="translate(3.000000, 3.000000)">
                <g id="Group-37" transform="translate(0.000000, 0.754000)">
                    <path d="M336.75098,171.7461 C336.75098,262.0451 263.123152,335.2461 172.297627,335.2461 C81.472102,335.2461 7.84427405,262.0451 7.84427405,171.7461 C7.84427405,81.4471 81.472102,8.2461 172.297627,8.2461 C263.123152,8.2461 336.75098,81.4471 336.75098,171.7461" id="Fill-1" fill="#ED262B"></path>
                    <path d="M172.400724,17.4443 C86.8779402,17.4443 17.2985816,86.6203 17.2985816,171.6473 C17.2985816,256.6753 86.8779402,325.8513 172.400724,325.8513 C257.924515,325.8513 327.503873,256.6753 327.503873,171.6473 C327.503873,86.6203 257.924515,17.4443 172.400724,17.4443 M172.400724,343.0493 C77.3386399,343.0493 0.000301749271,266.1593 0.000301749271,171.6473 C0.000301749271,77.1363 77.3386399,0.2463 172.400724,0.2463 C267.463815,0.2463 344.802153,77.1363 344.802153,171.6473 C344.802153,266.1593 267.463815,343.0493 172.400724,343.0493" id="Fill-3" fill="#020303"></path>
                    <path d="M112.088287,113.377 C100.5675,114.912 78.915984,118.939 73.0137682,125.232 C65.3272085,133.429 65.7788265,146.315 74.0226166,153.959 C78.0167711,157.662 83.2098761,159.598 88.6805904,159.406 C94.137223,159.218 99.193535,156.927 102.918127,152.955 C108.825372,146.659 111.353025,124.907 112.088287,113.377 M87.9423105,165.868 C81.104672,165.868 74.6251093,163.334 69.5989723,158.674 C58.739016,148.606 58.1425583,131.631 68.2702697,120.832 C77.7431851,110.731 111.377165,106.909 115.181217,106.508 L118.90078,106.113 L118.765999,109.831 C118.626188,113.631 117.135547,147.253 107.662631,157.356 C102.756188,162.585 96.0955758,165.604 88.9058965,165.852 C88.5850364,165.864 88.2631706,165.868 87.9423105,165.868" id="Fill-5" fill="#FEFEFE"></path>
                    <path d="M112.088287,113.377 C100.5675,114.912 78.915984,118.939 73.0137682,125.232 C65.3272085,133.429 65.7788265,146.315 74.0226166,153.959 C78.0167711,157.662 83.2098761,159.598 88.6805904,159.406 C94.137223,159.218 99.193535,156.927 102.918127,152.955 C108.825372,146.659 111.353025,124.907 112.088287,113.377 Z M87.9423105,165.868 C81.104672,165.868 74.6251093,163.334 69.5989723,158.674 C58.739016,148.606 58.1425583,131.631 68.2702697,120.832 C77.7431851,110.731 111.377165,106.909 115.181217,106.508 L118.90078,106.113 L118.765999,109.831 C118.626188,113.631 117.135547,147.253 107.662631,157.356 C102.756188,162.585 96.0955758,165.604 88.9058965,165.852 C88.5850364,165.864 88.2631706,165.868 87.9423105,165.868 Z" id="Stroke-7" stroke="#FEFEFE" stroke-width="0.25"></path>
                    <path d="M256.839525,183.8789 C256.59712,183.8789 256.354714,183.8839 256.109292,183.8919 C250.652659,184.0809 245.596347,186.3709 241.871755,190.3439 C235.96451,196.6399 233.436857,218.3919 232.701595,229.9239 C244.222382,228.3869 265.872892,224.3599 271.776114,218.0669 C275.4997,214.0959 277.444977,208.9209 277.254875,203.4959 C277.063767,198.0709 274.759408,193.0429 270.766259,189.3399 C266.951143,185.8049 262.029612,183.8789 256.839525,183.8789 Z M225.889102,237.1879 L226.023883,233.4699 C226.163694,229.6689 227.654335,196.0449 237.127251,185.9429 C242.033694,180.7129 248.694306,177.6959 255.883985,177.4459 C263.056566,177.1919 269.928402,179.7449 275.189904,184.6249 C280.451405,189.5009 283.485997,196.1229 283.737455,203.2719 C283.988913,210.4179 281.42505,217.2339 276.519612,222.4669 C267.044685,232.5669 233.412717,236.3899 229.609671,236.7929 L225.889102,237.1879 Z" id="Fill-9" fill="#FEFEFE"></path>
                    <path d="M256.839525,183.8789 C256.59712,183.8789 256.354714,183.8839 256.109292,183.8919 C250.652659,184.0809 245.596347,186.3709 241.871755,190.3439 C235.96451,196.6399 233.436857,218.3919 232.701595,229.9239 C244.222382,228.3869 265.872892,224.3599 271.776114,218.0669 C275.4997,214.0959 277.444977,208.9209 277.254875,203.4959 C277.063767,198.0709 274.759408,193.0429 270.766259,189.3399 C266.951143,185.8049 262.029612,183.8789 256.839525,183.8789 Z M225.889102,237.1879 L226.023883,233.4699 C226.163694,229.6689 227.654335,196.0449 237.127251,185.9429 C242.033694,180.7129 248.694306,177.6959 255.883985,177.4459 C263.056566,177.1919 269.928402,179.7449 275.189904,184.6249 C280.451405,189.5009 283.485997,196.1229 283.737455,203.2719 C283.988913,210.4179 281.42505,217.2339 276.519612,222.4669 C267.044685,232.5669 233.412717,236.3899 229.609671,236.7929 L225.889102,237.1879 Z" id="Stroke-11" stroke="#FEFEFE" stroke-width="0.25"></path>
                    <path d="M113.781704,231.6074 C115.32666,243.0614 119.377141,264.5864 125.705829,270.4544 C133.950625,278.0944 146.911762,277.6494 154.60134,269.4494 C158.324926,265.4784 160.271208,260.3034 160.081106,254.8784 C159.889999,249.4544 157.586646,244.4254 153.591485,240.7224 C147.262797,234.8574 125.382958,232.3394 113.781704,231.6074 M139.640611,282.3494 C133.058453,282.3494 126.464226,279.9734 121.282185,275.1704 C111.122287,265.7524 107.276996,232.3144 106.871646,228.5334 L106.475348,224.8344 L110.214022,224.9684 C114.037185,225.1074 147.857243,226.5874 158.016136,236.0074 C163.276631,240.8844 166.313235,247.5054 166.563687,254.6544 C166.815144,261.8004 164.251281,268.6174 159.345844,273.8494 C154.050144,279.4944 146.852418,282.3494 139.640611,282.3494" id="Fill-13" fill="#FEFEFE"></path>
                    <path d="M113.781704,231.6074 C115.32666,243.0614 119.377141,264.5864 125.705829,270.4544 C133.950625,278.0944 146.911762,277.6494 154.60134,269.4494 C158.324926,265.4784 160.271208,260.3034 160.081106,254.8784 C159.889999,249.4544 157.586646,244.4254 153.591485,240.7224 C147.262797,234.8574 125.382958,232.3394 113.781704,231.6074 Z M139.640611,282.3494 C133.058453,282.3494 126.464226,279.9734 121.282185,275.1704 C111.122287,265.7524 107.276996,232.3144 106.871646,228.5334 L106.475348,224.8344 L110.214022,224.9684 C114.037185,225.1074 147.857243,226.5874 158.016136,236.0074 C163.276631,240.8844 166.313235,247.5054 166.563687,254.6544 C166.815144,261.8004 164.251281,268.6174 159.345844,273.8494 C154.050144,279.4944 146.852418,282.3494 139.640611,282.3494 Z" id="Stroke-15" stroke="#FEFEFE" stroke-width="0.25"></path>
                    <path d="M205.158022,67.3857 C204.915617,67.3857 204.672206,67.3897 204.425777,67.3977 C198.969144,67.5867 193.911827,69.8767 190.188241,73.8497 C182.501681,82.0457 182.953299,94.9317 191.197089,102.5747 C197.525777,108.4417 219.406622,110.9577 231.007876,111.6937 C229.461914,100.2377 225.411433,78.7117 219.083751,72.8437 C215.268634,69.3087 210.348109,67.3857 205.158022,67.3857 Z M238.314232,118.4657 L234.574552,118.3317 C230.752395,118.1937 196.932337,116.7107 186.773445,107.2907 C175.913488,97.2217 175.317031,80.2477 185.443736,69.4487 C195.571448,58.6517 212.644421,58.0557 223.507395,68.1287 C233.666287,77.5467 237.512585,110.9857 237.917934,114.7667 L238.314232,118.4657 Z" id="Fill-17" fill="#FEFEFE"></path>
                    <path d="M205.158022,67.3857 C204.915617,67.3857 204.672206,67.3897 204.425777,67.3977 C198.969144,67.5867 193.911827,69.8767 190.188241,73.8497 C182.501681,82.0457 182.953299,94.9317 191.197089,102.5747 C197.525777,108.4417 219.406622,110.9577 231.007876,111.6937 C229.461914,100.2377 225.411433,78.7117 219.083751,72.8437 C215.268634,69.3087 210.348109,67.3857 205.158022,67.3857 Z M238.314232,118.4657 L234.574552,118.3317 C230.752395,118.1937 196.932337,116.7107 186.773445,107.2907 C175.913488,97.2217 175.317031,80.2477 185.443736,69.4487 C195.571448,58.6517 212.644421,58.0557 223.507395,68.1287 C233.666287,77.5467 237.512585,110.9857 237.917934,114.7667 L238.314232,118.4657 Z" id="Stroke-19" stroke="#FEFEFE" stroke-width="0.25"></path>
                    <path d="M138.76242,67.7314 C127.490073,67.7314 118.318907,76.8494 118.318907,88.0554 C118.318907,99.2644 127.490073,108.3824 138.76242,108.3824 C147.416589,108.3824 165.145364,95.3844 174.132464,88.0554 C165.145364,80.7274 147.416589,67.7314 138.76242,67.7314 M138.76242,114.8324 C123.912332,114.8324 111.832303,102.8214 111.832303,88.0554 C111.832303,73.2934 123.912332,61.2824 138.76242,61.2824 C152.654956,61.2824 178.404227,83.1284 181.294985,85.6194 L184.123382,88.0554 L181.294985,90.4934 C178.405233,92.9834 152.654956,114.8324 138.76242,114.8324" id="Fill-21" fill="#FEFEFE"></path>
                    <path d="M138.76242,67.7314 C127.490073,67.7314 118.318907,76.8494 118.318907,88.0554 C118.318907,99.2644 127.490073,108.3824 138.76242,108.3824 C147.416589,108.3824 165.145364,95.3844 174.132464,88.0554 C165.145364,80.7274 147.416589,67.7314 138.76242,67.7314 Z M138.76242,114.8324 C123.912332,114.8324 111.832303,102.8214 111.832303,88.0554 C111.832303,73.2934 123.912332,61.2824 138.76242,61.2824 C152.654956,61.2824 178.404227,83.1284 181.294985,85.6194 L184.123382,88.0554 L181.294985,90.4934 C178.405233,92.9834 152.654956,114.8324 138.76242,114.8324 Z" id="Stroke-23" stroke="#FEFEFE" stroke-width="0.25"></path>
                    <path d="M170.657217,255.2422 C179.644316,262.5712 197.374098,275.5662 206.027261,275.5662 C217.299608,275.5662 226.470774,266.4492 226.470774,255.2422 C226.470774,244.0332 217.299608,234.9162 206.027261,234.9162 C197.374098,234.9162 179.644316,247.9132 170.657217,255.2422 M206.027261,282.0152 C192.13573,282.0152 166.385453,260.1702 163.494695,257.6802 L160.666299,255.2422 L163.494695,252.8042 C166.384448,250.3142 192.13573,228.4672 206.027261,228.4672 C220.877348,228.4672 232.957378,240.4772 232.957378,255.2422 C232.957378,270.0052 220.877348,282.0152 206.027261,282.0152" id="Fill-25" fill="#FEFEFE"></path>
                    <path d="M170.657217,255.2422 C179.644316,262.5712 197.374098,275.5662 206.027261,275.5662 C217.299608,275.5662 226.470774,266.4492 226.470774,255.2422 C226.470774,244.0332 217.299608,234.9162 206.027261,234.9162 C197.374098,234.9162 179.644316,247.9132 170.657217,255.2422 Z M206.027261,282.0152 C192.13573,282.0152 166.385453,260.1702 163.494695,257.6802 L160.666299,255.2422 L163.494695,252.8042 C166.384448,250.3142 192.13573,228.4672 206.027261,228.4672 C220.877348,228.4672 232.957378,240.4772 232.957378,255.2422 C232.957378,270.0052 220.877348,282.0152 206.027261,282.0152 Z" id="Stroke-27" stroke="#FEFEFE" stroke-width="0.25"></path>
                    <path d="M88.3156749,169.9229 C80.9439402,178.8579 67.8721618,196.4829 67.8721618,205.0849 C67.8721618,216.2939 77.0423222,225.4119 88.3156749,225.4119 C99.5880219,225.4119 108.759188,216.2939 108.759188,205.0849 C108.759188,196.4739 95.6884155,178.8539 88.3156749,169.9229 M88.3156749,231.8609 C73.4645816,231.8609 61.3845525,219.8509 61.3845525,205.0849 C61.3845525,191.2759 83.3589402,165.6759 85.864465,162.8009 L88.3156749,159.9899 L90.7668848,162.8009 C93.2714038,165.6759 115.245792,191.2759 115.245792,205.0849 C115.245792,219.8509 103.165762,231.8609 88.3156749,231.8609" id="Fill-29" fill="#FEFEFE"></path>
                    <path d="M88.3156749,169.9229 C80.9439402,178.8579 67.8721618,196.4829 67.8721618,205.0849 C67.8721618,216.2939 77.0423222,225.4119 88.3156749,225.4119 C99.5880219,225.4119 108.759188,216.2939 108.759188,205.0849 C108.759188,196.4739 95.6884155,178.8539 88.3156749,169.9229 Z M88.3156749,231.8609 C73.4645816,231.8609 61.3845525,219.8509 61.3845525,205.0849 C61.3845525,191.2759 83.3589402,165.6759 85.864465,162.8009 L88.3156749,159.9899 L90.7668848,162.8009 C93.2714038,165.6759 115.245792,191.2759 115.245792,205.0849 C115.245792,219.8509 103.165762,231.8609 88.3156749,231.8609 Z" id="Stroke-31" stroke="#FEFEFE" stroke-width="0.25"></path>
                    <path d="M256.474106,117.8867 C245.201759,117.8867 236.030593,127.0037 236.030593,138.2127 C236.030593,146.8247 249.101366,164.4457 256.474106,173.3757 C263.845841,164.4407 276.91762,146.8167 276.91762,138.2127 C276.91762,127.0037 267.747459,117.8867 256.474106,117.8867 Z M256.474106,183.3087 L254.022897,180.4967 C251.518378,177.6227 229.54399,152.0227 229.54399,138.2127 C229.54399,123.4487 241.624019,111.4377 256.474106,111.4377 C271.3252,111.4377 283.405229,123.4487 283.405229,138.2127 C283.405229,152.0227 261.430841,177.6227 258.925316,180.4967 L256.474106,183.3087 Z" id="Fill-33" fill="#FEFEFE"></path>
                    <path d="M256.474106,117.8867 C245.201759,117.8867 236.030593,127.0037 236.030593,138.2127 C236.030593,146.8247 249.101366,164.4457 256.474106,173.3757 C263.845841,164.4407 276.91762,146.8167 276.91762,138.2127 C276.91762,127.0037 267.747459,117.8867 256.474106,117.8867 Z M256.474106,183.3087 L254.022897,180.4967 C251.518378,177.6227 229.54399,152.0227 229.54399,138.2127 C229.54399,123.4487 241.624019,111.4377 256.474106,111.4377 C271.3252,111.4377 283.405229,123.4487 283.405229,138.2127 C283.405229,152.0227 261.430841,177.6227 258.925316,180.4967 L256.474106,183.3087 Z" id="Stroke-35" stroke="#FEFEFE" stroke-width="0.25"></path>
                </g>
            </g>
        </g>
    </g>
</svg>